<?xml version="1.0" encoding="UTF-8" standalone="no"?>
<!DOCTYPE svg PUBLIC "-//W3C//DTD SVG 1.1//EN" "http://www.w3.org/Graphics/SVG/1.1/DTD/svg11.dtd">
<svg width="100%" height="100%" viewBox="0 0 3840 2160" version="1.1" xmlns="http://www.w3.org/2000/svg" xmlns:xlink="http://www.w3.org/1999/xlink" xml:space="preserve" xmlns:serif="http://www.serif.com/" style="fill-rule:evenodd;clip-rule:evenodd;stroke-linecap:round;stroke-linejoin:round;stroke-miterlimit:1.5;">
    <rect id="Artboard1" x="0" y="0" width="3840" height="2160" style="fill:url(#_Linear1);"/>
    <clipPath id="_clip2">
        <rect id="Artboard11" serif:id="Artboard1" x="0" y="0" width="3840" height="2160"/>
    </clipPath>
    <g clip-path="url(#_clip2)">
        <g transform="matrix(3.94828,0,0,3.94828,-5726,-3920.92)">
            <path d="M2054.72,-308.461L2077.3,-306.981L1964.73,1410.52L2300.51,-277.594L2322.7,-273.18L1986.92,1414.93L2540.18,-214.909L2561.6,-207.636L2008.34,1422.2L2769.6,-121.478L2789.9,-111.471L2028.64,1432.21L2984.88,1.1L3003.69,13.67L2047.45,1444.78L3182.31,150.728L3199.32,165.646L2064.46,1459.7L3358.51,324.845L3373.43,341.856L2079.38,1476.71L3510.49,520.473L3523.06,539.286L2091.95,1495.53L3635.63,734.264L3645.64,754.557L2101.96,1515.82L3731.8,962.561L3739.07,983.986L2109.23,1537.24L3797.34,1201.46L3801.76,1223.65L2113.64,1559.43L3831.14,1446.86L3832.62,1469.44L2115.12,1582.01L3832.62,1694.58L3831.14,1717.16L2113.64,1604.59L3801.76,1940.37L3797.34,1962.57L2109.23,1626.78L3739.07,2180.04L3731.8,2201.46L2101.96,1648.2L3645.64,2409.47L3635.63,2429.76L2091.95,1668.5L3523.06,2624.74L3510.49,2643.55L2079.38,1687.31L3373.43,2822.16L3358.51,2839.18L2064.46,1704.32L3199.32,2998.38L3182.31,3013.29L2047.45,1719.24L3003.69,3150.35L2984.88,3162.92L2028.64,1731.81L2789.9,3275.49L2769.6,3285.5L2008.34,1741.82L2561.6,3371.66L2540.18,3378.93L1986.92,1749.09L2322.7,3437.2L2300.51,3441.62L1964.73,1753.5L2077.3,3471L2054.72,3472.48L1942.15,1754.98L1829.58,3472.48L1807,3471L1919.57,1753.5L1583.79,3441.62L1561.6,3437.2L1897.38,1749.09L1344.12,3378.93L1322.7,3371.66L1875.96,1741.82L1114.7,3285.5L1094.4,3275.49L1855.66,1731.81L899.426,3162.92L880.613,3150.35L1836.85,1719.24L701.996,3013.29L684.985,2998.38L1819.84,1704.32L525.786,2839.18L510.868,2822.16L1804.92,1687.31L373.81,2643.55L361.24,2624.74L1792.35,1668.5L248.669,2429.76L238.662,2409.47L1782.35,1648.2L152.504,2201.46L145.231,2180.04L1775.07,1626.78L86.96,1962.57L82.546,1940.37L1770.66,1604.59L53.159,1717.16L51.679,1694.58L1769.18,1582.01L51.679,1469.44L53.159,1446.86L1770.66,1559.43L82.546,1223.65L86.96,1201.46L1775.07,1537.24L145.231,983.986L152.504,962.561L1782.35,1515.82L238.662,754.557L248.669,734.264L1792.35,1495.53L361.24,539.286L373.81,520.473L1804.92,1476.71L510.868,341.856L525.786,324.845L1819.84,1459.7L684.985,165.646L701.996,150.728L1836.85,1444.78L880.613,13.67L899.426,1.1L1855.66,1432.21L1094.4,-111.471L1114.7,-121.478L1875.96,1422.2L1322.7,-207.636L1344.12,-214.909L1897.38,1414.93L1561.6,-273.18L1583.79,-277.594L1919.57,1410.52L1807,-306.981L1829.58,-308.461L1942.15,1409.04L2054.72,-308.461Z" style="fill:white;fill-opacity:0.1;"/>
        </g>
        <g id="Hills">
            <g transform="matrix(2.38228,0,0,2.6108,-1646.98,-767.59)">
                <ellipse cx="915.5" cy="1497" rx="1004.5" ry="720" style="fill:rgb(0,131,47);"/>
                <clipPath id="_clip3">
                    <ellipse cx="915.5" cy="1497" rx="1004.5" ry="720"/>
                </clipPath>
                <g clip-path="url(#_clip3)">
                    <g transform="matrix(0.498582,0,0,0.383025,552.045,294.006)">
                        <path d="M1668.91,2004.73C483.807,1843.25 363.096,1427.09 1422.58,1336.27L1471.08,1268.42C196.522,1377.67 341.737,1878.32 1767.42,2072.58L1668.91,2004.73Z" style="fill:rgb(255,241,151);fill-opacity:0.9;"/>
                    </g>
                </g>
            </g>
            <g transform="matrix(2.38228,0,0,2.6108,1533.02,-948.59)">
                <ellipse cx="915.5" cy="1497" rx="1004.5" ry="720" style="fill:rgb(0,190,47);"/>
                <clipPath id="_clip4">
                    <ellipse cx="915.5" cy="1497" rx="1004.5" ry="720"/>
                </clipPath>
                <g clip-path="url(#_clip4)">
                    <g transform="matrix(0.415144,0,0,0.467858,-614.231,195.983)">
                        <path d="M2706.03,2240.48C2715.82,2231.68 2692.15,2217.82 2682.85,2208.51C2609.14,2134.8 2513.95,2052.96 2405.77,2036.95C2226.02,2010.34 1861.48,2029.64 1774.7,1856.12C1773.07,1852.85 1763.62,1838.27 1760.41,1838.27L1836.64,1757.2C1839.85,1757.2 1849.3,1771.78 1850.93,1775.05C1937.71,1948.57 2302.25,1929.27 2482,1955.88C2590.18,1971.89 2685.37,2053.73 2759.08,2127.44C2768.38,2136.74 2792.05,2150.61 2782.26,2159.41C2777.47,2163.72 2701.24,2244.79 2706.03,2240.48Z" style="fill:rgb(255,241,151);"/>
                    </g>
                </g>
            </g>
        </g>
        <g id="Plane" transform="matrix(1,0,0,1,292.573,33.9451)">
            <g transform="matrix(-0.807715,0,0,0.807715,1056.62,274.284)">
                <path d="M407.55,242.19C407.55,243.08 407.4,243.65 407.09,244.13C406.79,244.62 406.33,245.01 405.72,245.56C405.72,245.56 404.45,245.81 404.45,245.82C404.27,245.86 402.56,246.14 399.98,247.09C397.93,247.83 397.16,247.98 395.76,249.01C395.12,249.38 394.18,250.02 393.26,250.69C392.34,251.35 391.44,252.03 390.91,252.49C390.9,252.49 390.08,253.06 389.25,253.62C388.42,254.18 387.6,254.75 387.59,254.75C382.07,259.43 382.91,256.38 381.89,263.68C380.91,270.74 383.15,284.07 383.31,284.99L383.31,285.01C385.02,288.73 385.97,292.86 385.97,297.22C385.97,305.94 382.16,313.77 376.11,319.13C376.11,319.13 376.62,325.6 376.11,328.49C375.59,331.38 372.02,332.5 372.02,332.5C372.02,332.5 367.93,333.52 363.85,330.45C361.83,328.94 360.69,327.43 360.05,326.29C358.68,326.46 357.29,326.52 355.87,326.47C354.99,327.78 353.68,329.43 352.11,330.45C349.17,332.37 348.02,331.99 345.85,332.66C343.68,333.33 342.02,332.75 340.11,330.71C338.19,328.67 338.32,327.01 337.93,323.69C337.76,322.23 337.92,320.87 338.15,319.8C331.76,314.52 327.61,306.6 327.43,297.84C327.35,293.86 328.06,290.05 329.42,286.57L329.48,286.45C329.64,286.1 330.16,284.96 330.92,283.34C330.92,283.33 330.92,283.33 330.93,283.32C333.68,277.38 339.45,264.93 341.72,260.11C342.92,257.56 344.01,254.92 344.9,252.65C346.18,249.38 346.28,249.13 346.36,248.88C346.37,248.87 346.99,246.79 347.93,245.63C348.58,244.82 349.33,244.08 350.14,243.43L351.08,242.38C350.18,241.47 349.07,239.86 349.42,237.77C349.68,236.24 351.78,233.37 352.29,233.11C353.33,232.58 355.46,232.03 356.57,232.54C358.16,233.26 359.69,234.9 360.62,236.04C361.48,235.65 362.4,235.38 363.34,235.23C365.63,234.87 369.6,234.32 374.74,233.9C377.04,233.72 379.05,233.37 380.84,233.25C388.92,232.7 392.2,233.9 392.2,233.9L392.21,233.9L401.55,236.19C404.86,236.19 407.55,238.88 407.55,242.19Z" style="fill:rgb(167,169,172);fill-rule:nonzero;"/>
                <path d="M341.17,261.13C341.17,261.13 355.21,273.4 360.83,276.08C366.45,278.75 371.81,280.76 375.64,280.9C379.47,281.04 383.05,280.53 383.05,280.53C383.05,280.53 383.03,282.82 383.61,284.2C384.2,285.59 385.56,289.86 385.72,290.78C385.89,291.7 386.19,294.31 386.19,294.31C386.19,294.31 366.35,290.78 362.05,288.63C358.28,286.75 347.43,275.05 345.64,272.35C343.85,269.65 339.97,263.69 339.97,263.69L341.17,261.13Z" style="fill:rgb(35,31,32);fill-rule:nonzero;"/>
                <path d="M341.95,259.31C341.95,259.31 354.18,269.05 359.68,271.87C364.91,274.55 368.36,276.15 372.36,276.55C376.43,276.96 382.68,277.72 382.68,277.72L382.97,279.97C382.97,279.97 373.79,279.58 369.06,278.29C364.43,277.02 348.68,266.57 345.83,264.32C343.15,262.21 341.13,261.12 341.13,261.12L341.95,259.31Z" style="fill:white;fill-rule:nonzero;"/>
                <path d="M339.54,264.62C339.54,264.62 341.93,269.91 347.21,276.08C352.49,282.24 358.44,287.9 360.32,288.65C362.19,289.4 365.94,291.69 370.19,292.71C374.45,293.73 376.02,293.97 379.25,294.32C382.48,294.68 383.87,295 385.12,294.99C386.37,294.98 386.26,294.99 386.26,294.99L386.18,298.59C386.18,298.59 371.2,297.45 366.44,294.99C361.67,292.54 354.01,287.69 351.72,284.96C349.42,282.24 346.26,278.38 344.66,276.08C343.05,273.78 340.26,268.11 339.54,267.13C338.82,266.15 338.97,265.84 338.97,265.84L339.54,264.62Z" style="fill:white;fill-rule:nonzero;"/>
                <path d="M336.803,285.94C341.917,283.448 344.581,278.388 342.754,274.64C340.926,270.892 335.3,269.874 330.186,272.367C325.073,274.86 322.409,279.919 324.236,283.667C326.063,287.415 331.69,288.433 336.803,285.94Z" style="fill:rgb(188,190,192);fill-rule:nonzero;"/>
                <path d="M327.429,297.66C327.429,297.66 327.349,303.15 328.949,306.64C330.059,309.07 331.929,312.83 332.749,313.95C333.569,315.07 336.079,317.96 336.839,318.64C337.599,319.32 337.589,319.4 338.969,320.47C340.329,321.53 342.759,323.27 344.839,324.09C346.579,324.77 350.629,325.62 350.629,325.62C350.629,325.62 355.139,326.6 355.399,326.51C355.659,326.42 359.809,326.46 360.069,326.29C360.329,326.12 367.889,320.77 367.889,320.77L359.529,321.92C359.529,321.92 356.549,321.97 355.529,321.88C354.129,321.75 352.419,321.41 350.679,320.82C348.259,320 343.339,318.09 341.139,316.31C338.789,314.4 334.539,310.5 333.509,308.82C330.989,304.7 327.429,297.66 327.429,297.66Z" style="fill:rgb(147,149,152);fill-rule:nonzero;"/>
                <path d="M338.15,319.8C338.15,319.8 337.46,319.91 337.93,323.69C338.4,327.47 338.31,326.98 338.31,326.98C338.31,326.98 338.73,329.03 339.42,329.87C340.11,330.71 341.509,332.06 342.089,332.34C342.669,332.62 343.8,332.9 343.8,332.9C343.8,332.9 345.219,332.83 345.849,332.66C346.479,332.49 345.89,332.77 345.17,331.79C344.45,330.81 344.49,331.02 344,329.94C343.51,328.86 342.47,327.05 342.4,326.26C342.33,325.47 342.93,322.83 342.93,322.83L338.15,319.8Z" style="fill:rgb(147,149,152);fill-rule:nonzero;"/>
                <path d="M366.05,246.02C367.265,246.02 368.25,245.035 368.25,243.82C368.25,242.605 367.265,241.62 366.05,241.62C364.835,241.62 363.85,242.605 363.85,243.82C363.85,245.035 364.835,246.02 366.05,246.02Z" style="fill:rgb(35,31,32);fill-rule:nonzero;"/>
            </g>
            <g>
                <path d="M949.551,510.878L1019.82,510.878L1084.58,446.119L1084.58,554.902L1019.82,510.878" style="fill:none;stroke:rgb(102,102,102);stroke-width:6px;"/>
                <g>
                    <g transform="matrix(0.945519,0,0,1.05354,30.3405,-26.0213)">
                        <ellipse cx="563.578" cy="481.418" rx="4.86" ry="27.824" style="fill:rgb(86,90,91);"/>
                    </g>
                    <g transform="matrix(0.945519,0,0,1.05354,30.3405,44.6516)">
                        <ellipse cx="563.578" cy="481.418" rx="4.86" ry="27.824" style="fill:rgb(86,90,91);"/>
                    </g>
                    <path d="M559.342,506.43L582.236,506.43L582.236,528.717L559.342,528.717C552.286,528.717 546.558,523.723 546.558,517.573C546.558,511.423 552.286,506.43 559.342,506.43Z" style="fill:rgb(64,63,68);"/>
                </g>
                <path d="M579,480L615.066,481.283L612.888,552.711L583,552.553C578.892,553.596 576.005,549.023 576,543L571.194,489C571.229,483.671 573.348,480.233 579,480Z" style="fill:rgb(60,37,21);"/>
                <path d="M860,490C882.457,483.82 895.472,471.757 902.027,455.669C919.19,411.303 955.951,441.273 956.833,467.595C957.354,483.125 957.689,498.495 948.82,512.758L860,490Z" style="fill:rgb(255,49,49);"/>
                <path d="M612.888,552.711L615.066,481.283L735.228,485.56C752.751,500.359 771.571,501.566 791.773,487.572L860,490C882.717,489.425 902.689,492.655 919.722,497.867C951.785,505.308 964.524,512.97 923.438,525.032C876.081,543.585 825.459,552.678 772,553.553L612.888,552.711Z" style="fill:rgb(255,101,101);"/>
                <g>
                    <g transform="matrix(1.07918,0,0.158184,0.998736,-123.459,0.66831)">
                        <rect x="645.741" y="455.577" width="6.999" height="73.178" style="fill:rgb(141,150,159);"/>
                    </g>
                    <g transform="matrix(1.07918,0,0.165756,1.04654,-86.7053,-21.1116)">
                        <rect x="645.741" y="455.577" width="6.999" height="73.178" style="fill:rgb(141,150,159);"/>
                    </g>
                </g>
                <g>
                    <path d="M640.23,443.928L668.284,443.78C691.134,444.062 713.064,448.364 727.692,454.701C729.31,455.403 729.195,456.747 727.574,456.72C688.178,456.059 638.627,456.901 629.246,453.695C619.06,450.806 620.187,448.262 632.436,444.895L640.23,443.928Z" style="fill:rgb(255,49,49);"/>
                    <g transform="matrix(1,0,0,1,10.0827,84.9749)">
                        <path d="M640.23,443.928L668.284,443.78C691.134,444.062 713.064,448.364 727.692,454.701C729.31,455.403 729.195,456.747 727.574,456.72C688.178,456.059 638.627,456.901 629.246,453.695C619.06,450.806 620.187,448.262 632.436,444.895L640.23,443.928Z" style="fill:rgb(255,53,53);"/>
                    </g>
                </g>
            </g>
            <g transform="matrix(1,0,0,1,-311,8)">
                <g transform="matrix(1,0,0,0.485844,353.114,153.828)">
                    <path d="M2710.17,1028.67C2714.55,1033.05 2671.73,1052.54 2666.4,1054.84C2498.52,1127.37 2351.74,1150.78 2168.36,1137.68C1804.47,1111.69 1362.42,925.74 1039.29,1176.49L1039.29,211.721C1362.42,-39.025 1804.47,146.929 2168.36,172.92C2351.74,186.018 2445.96,193.079 2613.84,120.553C2619.17,118.25 2661.99,98.765 2657.61,94.383L2710.17,1028.67Z" style="fill:rgb(255,122,122);"/>
                </g>
                <g transform="matrix(1,0,0,0.485844,353.114,13.5995)">
                    <path d="M1279.58,732.674L1332.27,1054.77L1342.1,1052.83L1367.21,690.897L1358.85,692.544L1336.54,1034.52L1283.12,707.462L1273.77,709.303L1252.13,1049.62L1198.54,724.124L1189.68,725.868L1248.18,1071.34L1258.01,1069.4L1279.58,732.674Z" style="fill:rgb(242,242,242);fill-rule:nonzero;"/>
                    <path d="M1420.37,1046.94L1506.58,1047.03L1506.58,1032.28L1428.28,1032.21L1428.32,867.487L1496,867.552L1496,853.317L1428.32,853.252L1428.36,706.326L1505.91,706.401L1505.92,691.658L1420.45,691.575L1420.37,1046.94Z" style="fill:rgb(242,242,242);fill-rule:nonzero;"/>
                    <path d="M1554.22,691.632L1545.94,1050.66L1594.3,1055.38C1637.72,1059.63 1645.69,1025.29 1647.14,962.316C1648.19,916.612 1641.59,881.357 1620.13,868.064C1640.35,859.86 1646.25,829.389 1647.22,787.24C1648.34,738.489 1639.83,699.994 1602.82,696.379L1554.22,691.632ZM1561.78,707.13L1602.24,711.082C1630.61,713.853 1640.42,738.733 1639.31,786.976C1638.12,838.774 1628.18,862.234 1602.78,859.244L1558.38,854.398L1561.78,707.13ZM1558.04,869.125L1602.45,873.463C1628.36,875.993 1640.54,905.177 1639.25,961.037C1637.81,1023.5 1628.43,1044.47 1594.63,1041.17L1554.16,1037.21L1558.04,869.125Z" style="fill:rgb(242,242,242);fill-rule:nonzero;"/>
                    <path d="M1724.2,940.924L1731.85,715.237L1723.97,714.105L1716.32,939.792C1713.31,1028.55 1707.81,1052.22 1677.75,1047.9L1667.89,1046.49L1667.36,1062.21L1677.21,1063.62C1714.67,1069 1720.87,1039.31 1724.2,940.924Z" style="fill:rgb(242,242,242);fill-rule:nonzero;"/>
                    <path d="M1747.38,1073.86L1756,1075.34L1776.52,972.745L1846.91,984.831L1858.89,1093L1867.5,1094.48L1826.23,730.791L1817.37,729.27L1747.38,1073.86ZM1779.33,958.433L1820.97,750.296L1845.29,969.758L1779.33,958.433Z" style="fill:rgb(242,242,242);fill-rule:nonzero;"/>
                    <path d="M1903.48,1101.36L1911.12,1102.62L1923.85,763.009L1967.74,1111.97L1975.87,1113.31L2047.39,784.933L2033.73,1122.87L2041.36,1124.12L2055.41,769.936L2042.36,767.782L1972.7,1092.9L1930.09,749.248L1917.29,747.135L1903.48,1101.36Z" style="fill:rgb(242,242,242);fill-rule:nonzero;"/>
                    <path d="M2138.83,1134.4L2225.73,1139.78L2225.95,1124.53L2147.19,1120.17C2156.62,1100.4 2176.77,1057.4 2187,1033.62C2208.79,980.038 2226.78,932.324 2227.71,868.803C2228.51,813.921 2214.92,780.02 2187.03,778.293C2161.1,776.689 2144.06,809.713 2143.14,872.725L2151.04,873.214C2151.86,817.316 2166.56,792.286 2186.8,793.538C2208.78,794.898 2220.26,820.532 2219.55,869.315C2218.7,927.246 2202.21,973.527 2180.2,1025.57C2158.44,1077.12 2139.12,1114.58 2139.12,1114.58L2138.83,1134.4Z" style="fill:rgb(242,242,242);fill-rule:nonzero;"/>
                    <path d="M2360.38,960.194C2358.92,830.08 2346.97,777.761 2308.7,779.581C2270.42,781.401 2259.66,834.8 2261.12,964.914C2262.58,1095.54 2274.52,1146.84 2312.8,1145.02C2351.07,1143.2 2361.85,1090.82 2360.38,960.194ZM2269.02,964.538C2267.6,838.49 2278.5,796.273 2308.87,794.829C2339.24,793.385 2351.07,834.522 2352.48,960.57C2353.9,1087.13 2343,1128.33 2312.63,1129.77C2282.25,1131.21 2270.44,1091.09 2269.02,964.538Z" style="fill:rgb(242,242,242);fill-rule:nonzero;"/>
                    <path d="M2395.39,1132.05L2481.99,1116.25L2481.34,1101.06L2402.88,1115.89C2411.11,1093.97 2428.64,1046.36 2437.44,1020.26C2456,961.752 2471.12,909.994 2468.4,846.693C2466.04,792.001 2450.6,761.644 2422.8,766.718C2396.97,771.432 2381.94,808.369 2384.65,871.164L2392.52,869.727C2390.12,814.022 2403.28,785.591 2423.45,781.91C2445.35,777.914 2458.23,800.573 2460.32,849.188C2462.81,906.918 2449.09,956.887 2430.22,1013.92C2411.58,1070.4 2394.54,1112.3 2394.54,1112.3L2395.39,1132.05Z" style="fill:rgb(242,242,242);fill-rule:nonzero;"/>
                    <path d="M2535.2,1102.77L2542.78,1100.62L2519.16,746.544L2513.04,748.273L2487.22,790.979L2488.36,808.104L2512.85,767.827L2535.2,1102.77Z" style="fill:rgb(242,242,242);fill-rule:nonzero;"/>
                </g>
                <g transform="matrix(1,0,0,0.485844,353.114,-208.895)">
                    <path d="M1458.64,1046.98L1465.62,1046.98L1465.61,953.586L1458.64,953.588L1458.64,1046.98Z" style="fill:rgb(242,242,242);fill-rule:nonzero;"/>
                    <path d="M1505.83,1014.77L1499.04,1014.61C1498.63,1031.06 1496.16,1037.06 1491.3,1036.94C1485.28,1036.8 1482.9,1028.83 1483.06,1000.51C1483.22,972.193 1485.7,964.218 1491.72,964.365C1496.71,964.488 1499.04,970.605 1499.2,987.603L1506.05,987.771C1506.07,961.951 1501.45,951.957 1491.79,951.72C1480.85,951.452 1476.17,963.72 1475.96,1000.34C1475.74,1036.96 1480.28,1049.32 1491.22,1049.59C1500.82,1049.82 1505.55,1039.93 1505.83,1014.77Z" style="fill:rgb(242,242,242);fill-rule:nonzero;"/>
                    <path d="M1542.82,1025.62C1543.26,991.381 1521.44,1000.49 1521.72,978.101C1521.81,971.517 1523.36,964.88 1528.86,965.307C1534.94,965.634 1535.99,973.333 1535.87,983.209L1542.59,983.57C1542.83,964.212 1539.44,953.752 1528.95,953.057C1519.16,952.531 1515,962.981 1514.81,978.125C1514.25,1012.09 1536.13,1003.12 1535.84,1025.77C1535.74,1033.67 1533.56,1039.35 1528.38,1038.94C1522.62,1038.63 1520.47,1031.53 1520.62,1019.68L1513.9,1019.32C1513.64,1039.47 1517.86,1050.37 1527.97,1051.04C1538.14,1051.59 1542.62,1041.82 1542.82,1025.62Z" style="fill:rgb(242,242,242);fill-rule:nonzero;"/>
                    <path d="M1594.32,1029.8C1595.03,995.578 1573.14,1003.93 1573.61,981.56C1573.74,974.979 1575.35,968.397 1580.85,969.013C1586.92,969.548 1587.91,977.283 1587.71,987.154L1594.42,987.746C1594.83,968.399 1591.52,957.824 1581.04,956.768C1571.26,955.906 1567.01,966.211 1566.69,981.346C1565.86,1015.29 1587.81,1007.07 1587.34,1029.71C1587.17,1037.61 1584.94,1043.21 1579.77,1042.62C1574.01,1042.12 1571.92,1034.94 1572.16,1023.1L1565.45,1022.51C1565.03,1042.64 1569.16,1053.68 1579.26,1054.71C1589.42,1055.6 1593.98,1045.98 1594.32,1029.8Z" style="fill:rgb(242,242,242);fill-rule:nonzero;"/>
                    <path d="M1617.25,1056.48L1617.56,1044.11L1615.51,1043.9C1611.87,1043.51 1611.17,1038.3 1611.48,1025.8L1612.23,995.407L1618.62,996.078L1618.89,985.291L1612.5,984.619L1613.06,961.859L1606.29,963.522L1605.79,983.914L1601.89,983.504L1601.62,994.292L1605.52,994.701L1604.75,1025.62C1604.3,1043.9 1604.85,1055.17 1614.69,1056.21L1617.25,1056.48Z" style="fill:rgb(242,242,242);fill-rule:nonzero;"/>
                    <path d="M1644.96,1059.45L1650.77,1060.15L1650.81,1040.5L1652.27,989.208L1645.5,988.395L1644.15,1035.87C1643.12,1040.36 1640.88,1047.35 1636.91,1046.88C1633.08,1046.42 1632.29,1040.38 1632.57,1030.39L1633.8,986.991L1627.1,986.186L1625.8,1029.58C1625.22,1050.22 1627.36,1058.4 1634.13,1059.21C1640.26,1059.94 1643.31,1052.13 1644.44,1048.18L1644.96,1059.45Z" style="fill:rgb(242,242,242);fill-rule:nonzero;"/>
                    <path d="M1680.83,1064.16L1686.64,1064.95L1686.75,1045.69L1689.27,966.826L1682.5,965.907L1681.4,1000.21C1680.13,996.08 1677.65,991.124 1673.31,990.534C1665.52,989.477 1661.99,1001.54 1661.2,1026.25C1660.42,1050.7 1663.23,1063.09 1671.27,1064.19C1676.45,1064.89 1679.04,1060.09 1680.39,1055.79L1680.83,1064.16ZM1673.31,1052.71C1669.03,1052.13 1667.4,1044.91 1667.97,1027.17C1668.55,1009.16 1670.64,1001.92 1674.79,1002.48C1678.17,1002.94 1680,1007.94 1681.02,1012.31L1679.95,1045.43C1678.61,1049.47 1676.44,1053.14 1673.31,1052.71Z" style="fill:rgb(242,242,242);fill-rule:nonzero;"/>
                    <path d="M1722.65,1048.34L1715.88,1047.33C1715.64,1052.58 1714.22,1059.89 1709.37,1059.17C1704.71,1058.48 1703.41,1051.81 1703.87,1034.97L1723.15,1037.85C1724.13,1009.86 1721.56,997.194 1711.6,995.712C1701.45,994.201 1697.93,1006.88 1697.08,1031.06C1696.23,1055.23 1698.85,1068.43 1708.99,1069.94C1719.34,1071.48 1722.12,1058.03 1722.65,1048.34ZM1711.18,1005.95C1715.14,1006.54 1716.61,1012.04 1716.54,1026.82L1704.29,1025C1705.11,1010.73 1706.97,1005.32 1711.18,1005.95Z" style="fill:rgb(242,242,242);fill-rule:nonzero;"/>
                    <path d="M1731.68,1071.67L1738.45,1072.74L1740.27,1024.15C1741.39,1019.97 1743.67,1013.99 1747.5,1014.6C1751.39,1015.22 1752.2,1021.03 1751.8,1031.8L1750.19,1074.61L1756.95,1075.69L1758.55,1033.14C1759.36,1011.73 1757.1,1003.44 1750.46,1002.39C1744.34,1001.41 1741.25,1008.45 1740.01,1012.35L1739.58,1001.71L1733.83,1000.8L1733.64,1019.53L1731.68,1071.67Z" style="fill:rgb(242,242,242);fill-rule:nonzero;"/>
                    <path d="M1781.36,1080L1781.84,1067.65L1779.8,1067.32C1776.16,1066.71 1775.53,1061.45 1776.02,1048.98L1777.21,1018.65L1783.59,1019.71L1784.01,1008.94L1777.63,1007.88L1778.52,985.167L1771.73,986.419L1770.93,1006.77L1767.04,1006.13L1766.62,1016.89L1770.51,1017.54L1769.3,1048.39C1768.59,1066.65 1768.98,1077.94 1778.8,1079.57L1781.36,1080Z" style="fill:rgb(242,242,242);fill-rule:nonzero;"/>
                    <path d="M1834.05,1055.71L1827.29,1054.55C1826.3,1070.9 1823.63,1076.52 1818.78,1075.68C1812.79,1074.64 1810.69,1066.35 1811.84,1038.12C1812.99,1009.9 1815.74,1002.31 1821.74,1003.35C1826.71,1004.21 1828.82,1010.66 1828.39,1027.63L1835.21,1028.82C1836.13,1003.07 1831.88,992.415 1822.25,990.75C1811.35,988.864 1806.25,1000.41 1804.76,1036.9C1803.27,1073.39 1807.36,1086.39 1818.27,1088.28C1827.84,1089.93 1832.9,1080.76 1834.05,1055.71Z" style="fill:rgb(242,242,242);fill-rule:nonzero;"/>
                    <path d="M1868.66,1059.41C1869.67,1035.26 1867.15,1021.47 1856.89,1019.67C1846.62,1017.99 1843.08,1030.59 1842.07,1054.74C1841.08,1078.76 1843.54,1092.15 1853.81,1093.95C1864.08,1095.76 1867.67,1083.43 1868.66,1059.41ZM1848.96,1055.95C1849.72,1037.58 1851.45,1030.08 1856.42,1030.95C1861.39,1031.83 1862.48,1039.82 1861.72,1058.19C1860.96,1076.44 1859.25,1083.67 1854.27,1082.8C1849.3,1081.92 1848.2,1074.2 1848.96,1055.95Z" style="fill:rgb(242,242,242);fill-rule:nonzero;"/>
                    <path d="M1896.35,1099.71L1902.15,1100.73L1902.45,1081.09L1904.57,1029.9L1897.81,1028.71L1895.85,1076.09C1894.76,1080.53 1892.42,1087.39 1888.47,1086.7C1884.64,1086.03 1883.93,1079.95 1884.35,1069.97L1886.14,1026.66L1879.45,1025.49L1877.59,1068.79C1876.73,1089.39 1878.77,1097.68 1885.53,1098.87C1891.65,1099.95 1894.79,1092.3 1895.98,1088.41L1896.35,1099.71Z" style="fill:rgb(242,242,242);fill-rule:nonzero;"/>
                    <path d="M1912.58,1102.56L1919.34,1103.73L1921.32,1055.16C1922.45,1050.99 1924.75,1045.05 1928.58,1045.71C1932.47,1046.38 1933.26,1052.2 1932.82,1062.97L1931.07,1105.76L1937.83,1106.93L1939.57,1064.4C1940.44,1043 1938.21,1034.68 1931.58,1033.54C1925.46,1032.48 1922.35,1039.47 1921.1,1043.36L1920.7,1032.71L1914.96,1031.72L1914.71,1050.45L1912.58,1102.56Z" style="fill:rgb(242,242,242);fill-rule:nonzero;"/>
                    <path d="M1973.79,1088.54L1967.09,1087.42C1966.64,1097.25 1964.59,1101.93 1960.64,1101.27C1955.85,1100.47 1954.68,1092.87 1955.41,1074.36C1956.14,1055.97 1957.91,1048.47 1962.7,1049.28C1966.84,1049.97 1968.28,1055.89 1967.95,1067.34L1974.59,1068.45C1975.02,1051.08 1972.71,1039.72 1963.14,1038.12C1953.06,1036.43 1949.47,1049.17 1948.52,1073.2C1947.57,1097.23 1950.05,1110.73 1960.2,1112.43C1969.64,1114.01 1972.86,1103.98 1973.79,1088.54Z" style="fill:rgb(242,242,242);fill-rule:nonzero;"/>
                    <path d="M1985.38,1032.68L1992.15,1033.77L1992.77,1017.49L1986.01,1016.39L1985.38,1032.68ZM1982.26,1114.36L1989.02,1115.45L1991.73,1044.67L1984.97,1043.58L1982.26,1114.36Z" style="fill:rgb(242,242,242);fill-rule:nonzero;"/>
                    <path d="M2000.09,1117.22L2006.85,1118.29L2010.49,1020.3L2003.72,1019.24L2000.09,1117.22Z" style="fill:rgb(242,242,242);fill-rule:nonzero;"/>
                    <path d="M2032.36,1122.2L2039.32,1123.19L2040.37,1091.91L2045.8,1092.68C2057.87,1094.4 2062.56,1088.2 2063.38,1063.89C2064.19,1039.58 2059.89,1032.23 2047.88,1030.52L2035.5,1028.76L2032.36,1122.2ZM2042.06,1041.58L2048.44,1042.49C2053.62,1043.22 2056.8,1045.79 2056.23,1062.74C2055.66,1079.82 2052.33,1081.46 2047.16,1080.73L2040.78,1079.82L2042.06,1041.58Z" style="fill:rgb(242,242,242);fill-rule:nonzero;"/>
                    <path d="M2070.26,1127.48L2077.03,1128.35L2078.3,1086.41C2079.12,1080.71 2081.65,1068.89 2088.11,1069.72L2088.49,1057.09C2082.29,1056.3 2079.36,1064.24 2078.17,1069.5L2077.71,1057.3L2071.89,1056.55L2071.79,1077L2070.26,1127.48Z" style="fill:rgb(242,242,242);fill-rule:nonzero;"/>
                    <path d="M2119.36,1111.48L2112.59,1110.71C2112.39,1115.96 2111.03,1123.33 2106.18,1122.78C2101.51,1122.25 2100.15,1115.63 2100.47,1098.78L2119.77,1100.97C2120.52,1072.95 2117.85,1060.38 2107.88,1059.25C2097.72,1058.1 2094.3,1070.9 2093.65,1095.1C2093,1119.3 2095.73,1132.41 2105.89,1133.56C2116.24,1134.74 2118.91,1121.19 2119.36,1111.48ZM2107.54,1069.5C2111.5,1069.95 2113.02,1075.4 2113.08,1090.18L2100.81,1088.79C2101.51,1074.49 2103.32,1069.02 2107.54,1069.5Z" style="fill:rgb(242,242,242);fill-rule:nonzero;"/>
                    <path d="M2152.64,1117.94C2153.25,1090.3 2134.83,1097.57 2135.16,1082.17C2135.3,1075.98 2136.91,1072.57 2141,1073.08C2144.71,1073.42 2146.42,1077.28 2146.22,1086.62L2152.67,1087.21C2153.01,1071.69 2149.54,1063.45 2141.1,1062.54C2132.6,1061.76 2128.67,1068.65 2128.46,1081.29C2127.94,1108.14 2146.29,1100.74 2145.87,1117.05C2145.72,1123.89 2143.8,1126.75 2139.84,1126.25C2136.32,1125.92 2133.71,1122.52 2133.95,1111.46L2127.36,1110.85C2127,1127.57 2131.23,1136.27 2139.67,1137.05C2148.94,1138.03 2152.37,1130.44 2152.64,1117.94Z" style="fill:rgb(242,242,242);fill-rule:nonzero;"/>
                    <path d="M2186.79,1117.07L2180.01,1116.61C2179.86,1121.87 2178.59,1129.3 2173.72,1128.96C2169.06,1128.65 2167.62,1122.09 2167.77,1105.23L2187.08,1106.54C2187.53,1078.5 2184.72,1066.05 2174.74,1065.37C2164.57,1064.68 2161.29,1077.64 2160.91,1101.87C2160.52,1126.09 2163.38,1139.07 2173.55,1139.76C2183.91,1140.46 2186.44,1126.8 2186.79,1117.07ZM2174.52,1075.64C2178.48,1075.91 2180.06,1081.29 2180.27,1096.06L2167.99,1095.23C2168.54,1080.9 2170.3,1075.35 2174.52,1075.64Z" style="fill:rgb(242,242,242);fill-rule:nonzero;"/>
                    <path d="M2196.33,1139.47L2203.11,1139.76L2203.6,1091.03C2204.6,1086.72 2206.71,1080.49 2210.55,1080.65C2214.45,1080.82 2215.42,1086.53 2215.31,1097.33L2214.88,1140.26L2221.66,1140.55L2222.09,1097.88C2222.31,1076.41 2219.83,1068.4 2213.17,1068.12C2207.03,1067.86 2204.14,1075.24 2203.01,1079.28L2202.28,1068.71L2196.53,1068.46L2196.85,1087.18L2196.33,1139.47Z" style="fill:rgb(242,242,242);fill-rule:nonzero;"/>
                    <path d="M2246.15,1141.34L2246.21,1128.95L2244.16,1128.91C2240.51,1128.84 2239.7,1123.69 2239.76,1111.17L2239.9,1080.75L2246.3,1080.87L2246.36,1070.07L2239.95,1069.94L2240.06,1047.16L2233.33,1049.39L2233.24,1069.81L2229.33,1069.73L2229.28,1080.54L2233.18,1080.61L2233.04,1111.57C2232.95,1129.88 2233.73,1141.09 2243.59,1141.29L2246.15,1141.34Z" style="fill:rgb(242,242,242);fill-rule:nonzero;"/>
                    <path d="M2278.2,1122.51C2278.18,1094.85 2259.94,1103.87 2259.93,1088.46C2259.93,1082.27 2261.46,1078.71 2265.55,1078.82C2269.27,1078.81 2271.06,1082.49 2271.07,1091.84L2277.53,1091.82C2277.52,1076.27 2273.86,1068.38 2265.42,1068.29C2256.9,1068.32 2253.14,1075.58 2253.21,1088.22C2253.3,1115.1 2271.47,1105.94 2271.42,1122.27C2271.42,1129.12 2269.57,1132.16 2265.6,1132.04C2262.08,1132.06 2259.39,1128.9 2259.38,1117.84L2252.79,1117.86C2252.8,1134.59 2257.23,1142.88 2265.68,1142.84C2274.96,1142.94 2278.21,1135.02 2278.2,1122.51Z" style="fill:rgb(242,242,242);fill-rule:nonzero;"/>
                </g>
                <g transform="matrix(1,0,0,0.485844,353.114,107.537)">
                    <path d="M1301.82,1060.51L1308.39,1059.47L1305.05,983.37L1318.73,1057.84L1325.81,1056.72L1334.16,979.18L1336.47,1055.05L1343.17,1053.99L1339.7,960.867L1329.37,962.496L1321.77,1041.38L1308.44,965.793L1298.35,967.382L1301.82,1060.51Z" style="fill:rgb(242,242,242);fill-rule:nonzero;"/>
                    <path d="M1379.11,1014.97C1378.53,990.764 1375.15,977.784 1364.86,978.821C1354.57,979.989 1351.88,993.448 1352.45,1017.66C1353.03,1041.74 1356.34,1054.33 1366.63,1053.29C1376.92,1052.25 1379.68,1039.05 1379.11,1014.97ZM1359.36,1016.96C1358.92,998.542 1360.14,990.638 1365.13,990.136C1370.11,989.634 1371.7,997.255 1372.14,1015.68C1372.58,1033.96 1371.35,1041.61 1366.36,1042.11C1361.38,1042.61 1359.79,1035.25 1359.36,1016.96Z" style="fill:rgb(242,242,242);fill-rule:nonzero;"/>
                    <path d="M1389.65,1049.49L1396.43,1049.08L1395.74,1000.36C1396.64,995.957 1398.59,989.514 1402.43,989.283C1406.34,989.049 1407.44,994.649 1407.59,1005.45L1408.2,1048.37L1414.98,1047.96L1414.38,1005.3C1414.07,983.84 1411.4,976.093 1404.75,976.493C1398.61,976.861 1395.9,984.536 1394.87,988.683L1393.89,978.199L1388.13,978.545L1388.91,997.212L1389.65,1049.49Z" style="fill:rgb(242,242,242);fill-rule:nonzero;"/>
                    <path d="M1425.81,1011.1L1438.61,1010.74L1438.54,999.934L1425.74,1000.3L1425.81,1011.1Z" style="fill:rgb(242,242,242);fill-rule:nonzero;"/>
                    <path d="M1450.63,1046.98L1457.6,1046.98L1457.6,1007.2L1472.07,1007.2L1472.07,995.347L1457.61,995.345L1457.61,965.969L1474.63,965.972L1474.63,953.59L1450.63,953.585L1450.63,1046.98Z" style="fill:rgb(242,242,242);fill-rule:nonzero;"/>
                    <path d="M1482.07,1047.13L1488.85,1047.29L1489.09,1005.27C1489.76,999.492 1492,987.426 1498.46,987.58L1498.54,974.934C1492.33,974.787 1489.59,983.021 1488.54,988.397L1487.78,976.259L1481.95,976.12L1482.35,996.549L1482.07,1047.13Z" style="fill:rgb(242,242,242);fill-rule:nonzero;"/>
                    <path d="M1507,965.89L1513.78,966.16L1513.93,949.829L1507.15,949.559L1507,965.89ZM1506.23,1047.81L1513.01,1048.08L1513.68,977.092L1506.89,976.822L1506.23,1047.81Z" style="fill:rgb(242,242,242);fill-rule:nonzero;"/>
                    <path d="M1521.87,1063.24L1526.67,1063.49C1526.67,1063.49 1528.4,1058.44 1529.88,1047.32C1531.23,1036.85 1531.36,1031.46 1531.36,1031.46L1525.15,1031.13C1525.15,1031.13 1525.17,1035.21 1524.2,1045.97C1523.24,1056.33 1521.87,1063.24 1521.87,1063.24Z" style="fill:rgb(242,242,242);fill-rule:nonzero;"/>
                    <path d="M1587.3,1006.44C1588.01,969.847 1583.58,957.088 1572.59,956.178C1561.59,955.267 1556.67,967.253 1555.96,1003.84C1555.25,1040.44 1559.67,1053.06 1570.67,1053.97C1581.67,1054.88 1586.58,1043.03 1587.3,1006.44ZM1563.06,1004.43C1563.61,976.133 1566.26,968.442 1572.34,968.945C1578.41,969.448 1580.75,977.552 1580.2,1005.85C1579.64,1034.15 1577,1041.71 1570.92,1041.21C1564.85,1040.7 1562.51,1032.73 1563.06,1004.43Z" style="fill:rgb(242,242,242);fill-rule:nonzero;"/>
                    <path d="M1621.45,1032.25L1614.74,1031.55C1614.43,1041.41 1612.46,1046.21 1608.49,1045.8C1603.7,1045.29 1602.41,1037.77 1602.87,1019.22C1603.33,1000.81 1604.99,993.197 1609.78,993.699C1613.94,994.134 1615.46,999.965 1615.3,1011.42L1621.95,1012.12C1622.12,994.727 1619.65,983.52 1610.06,982.516C1599.96,981.459 1596.56,994.425 1595.97,1018.5C1595.37,1042.58 1598.06,1055.91 1608.22,1056.98C1617.68,1057.97 1620.75,1047.74 1621.45,1032.25Z" style="fill:rgb(242,242,242);fill-rule:nonzero;"/>
                    <path d="M1644.36,1059.64L1644.7,1047.28L1642.66,1047.03C1639.02,1046.6 1638.33,1041.37 1638.68,1028.88L1639.54,998.499L1645.93,999.26L1646.23,988.476L1639.84,987.715L1640.48,964.964L1633.7,966.533L1633.13,986.917L1629.23,986.453L1628.93,997.236L1632.83,997.7L1631.96,1028.61C1631.45,1046.88 1631.96,1058.16 1641.8,1059.33L1644.36,1059.64Z" style="fill:rgb(242,242,242);fill-rule:nonzero;"/>
                    <path d="M1679.1,1028.52C1679.86,1004.33 1677.21,990.645 1666.92,989.287C1656.64,988.059 1653.22,1000.81 1652.47,1025C1651.72,1049.05 1654.32,1062.33 1664.6,1063.69C1674.88,1065.05 1678.35,1052.57 1679.1,1028.52ZM1659.37,1025.91C1659.94,1007.5 1661.59,999.934 1666.57,1000.59C1671.55,1001.25 1672.72,1009.19 1672.14,1027.6C1671.57,1045.87 1669.93,1053.18 1664.95,1052.52C1659.97,1051.86 1658.8,1044.18 1659.37,1025.91Z" style="fill:rgb(242,242,242);fill-rule:nonzero;"/>
                    <path d="M1687.26,1065.04L1693.01,1065.88L1693.92,1057.96C1694.99,1062.34 1697.43,1067.85 1702.54,1068.59C1710.58,1069.77 1714.18,1058.28 1715.03,1033.84C1715.88,1009.13 1713.18,996.194 1705.39,995.057C1700.86,994.395 1698.14,998.753 1696.67,1002.5L1697.85,968.072L1691.15,967.094L1688.43,1045.93L1687.26,1065.04ZM1703.14,1006.48C1707.29,1007.09 1708.82,1014.84 1708.2,1032.84C1707.59,1050.58 1705.56,1057.28 1701.28,1056.66C1698.02,1056.18 1696.18,1051.95 1695.11,1047.57L1696.25,1014.72C1697.48,1010.67 1699.75,1005.99 1703.14,1006.48Z" style="fill:rgb(242,242,242);fill-rule:nonzero;"/>
                    <path d="M1749.3,1052.52L1742.53,1051.46C1742.27,1056.7 1740.85,1064.01 1736,1063.25C1731.34,1062.52 1730.05,1055.84 1730.54,1039.01L1749.81,1042.03C1750.85,1014.05 1748.3,1001.37 1738.35,999.805C1728.2,998.213 1724.65,1010.87 1723.76,1035.04C1722.86,1059.2 1725.45,1072.42 1735.6,1074.02C1745.94,1075.64 1748.74,1062.21 1749.3,1052.52ZM1737.9,1010.04C1741.86,1010.66 1743.33,1016.18 1743.23,1030.96L1730.97,1029.03C1731.82,1014.77 1733.69,1009.38 1737.9,1010.04Z" style="fill:rgb(242,242,242);fill-rule:nonzero;"/>
                    <path d="M1758.28,1075.92L1765.04,1077.03L1766.67,1035.14C1767.53,1029.47 1770.17,1017.75 1776.61,1018.81L1777.1,1006.2C1770.91,1005.18 1767.91,1013.02 1766.68,1018.23L1766.32,1006.01L1760.51,1005.06L1760.24,1025.5L1758.28,1075.92Z" style="fill:rgb(242,242,242);fill-rule:nonzero;"/>
                    <path d="M1800.48,1082.97L1807.17,1084.12L1810.92,991.173L1806.78,990.466L1797.53,998.404L1797.01,1011.27L1803.58,1006.05L1800.48,1082.97Z" style="fill:rgb(242,242,242);fill-rule:nonzero;"/>
                    <path d="M1823.24,1086.89L1829.94,1088.06L1833.75,995.122L1829.6,994.403L1820.35,1002.32L1819.82,1015.18L1826.39,1009.98L1823.24,1086.89Z" style="fill:rgb(242,242,242);fill-rule:nonzero;"/>
                    <path d="M1844.44,1053.97L1857.2,1056.21L1857.64,1045.45L1844.89,1043.21L1844.44,1053.97Z" style="fill:rgb(242,242,242);fill-rule:nonzero;"/>
                    <path d="M1870.86,1095.23L1877.56,1096.41L1881.41,1003.49L1877.27,1002.76L1868.01,1010.65L1867.48,1023.51L1874.05,1018.32L1870.86,1095.23Z" style="fill:rgb(242,242,242);fill-rule:nonzero;"/>
                    <path d="M1901.82,1020.16L1917.44,1022.89L1917.94,1010.95L1896.51,1007.2L1891.44,1056.82L1897.95,1057.95C1898.11,1057.19 1900.07,1050.13 1904.79,1050.95C1908.87,1051.67 1910.9,1058.5 1910.32,1072.41C1909.78,1085.67 1907.49,1091.35 1902.96,1090.56C1898.3,1089.75 1896.59,1083.1 1896.93,1074.83L1889.79,1073.58C1889.19,1087.89 1892.01,1100.67 1902.47,1102.5C1912.73,1104.3 1916.55,1092.67 1917.34,1073.64C1918.11,1055 1915.56,1042 1907.27,1040.55C1903.25,1039.85 1900.86,1041.81 1899.36,1043.92L1901.82,1020.16Z" style="fill:rgb(242,242,242);fill-rule:nonzero;"/>
                    <path d="M1939.12,1131.73L1944.03,1132.56L1949.29,1002.07L1944.38,1001.23L1939.12,1131.73Z" style="fill:rgb(242,242,242);fill-rule:nonzero;"/>
                    <path d="M1970.48,1018.76L1979.23,1113.87L1987.84,1115.27L2003.73,1024.16L1996.2,1022.94L1984.17,1100.4L1978.2,1020.01L1970.48,1018.76Z" style="fill:rgb(242,242,242);fill-rule:nonzero;"/>
                    <path d="M2011.05,1036.77L2017.82,1037.82L2018.41,1021.53L2011.65,1020.48L2011.05,1036.77ZM2008.07,1118.48L2014.83,1119.52L2017.42,1048.72L2010.65,1047.67L2008.07,1118.48Z" style="fill:rgb(242,242,242);fill-rule:nonzero;"/>
                    <path d="M2025.88,1121.21L2032.64,1122.2L2034.1,1080.29C2034.94,1074.6 2037.53,1062.83 2043.97,1063.78L2044.41,1051.17C2038.22,1050.26 2035.25,1058.14 2034.04,1063.38L2033.63,1051.16L2027.82,1050.31L2027.63,1070.75L2025.88,1121.21Z" style="fill:rgb(242,242,242);fill-rule:nonzero;"/>
                    <path d="M2064.79,1127.02L2065.19,1114.66L2063.15,1114.38C2059.51,1113.88 2058.85,1108.64 2059.25,1096.15L2060.24,1065.79L2066.63,1066.67L2066.98,1055.9L2060.59,1055.02L2061.34,1032.28L2054.55,1033.72L2053.89,1054.09L2049.99,1053.55L2049.64,1064.33L2053.54,1064.87L2052.53,1095.75C2051.93,1114.02 2052.4,1125.31 2062.23,1126.67L2064.79,1127.02Z" style="fill:rgb(242,242,242);fill-rule:nonzero;"/>
                    <path d="M2092.36,1130.28L2098.17,1131L2098.24,1111.34L2099.74,1060.06L2092.97,1059.22L2091.58,1106.69C2090.55,1111.18 2088.29,1118.15 2084.33,1117.66C2080.5,1117.18 2079.71,1111.15 2080.01,1101.16L2081.28,1057.76L2074.57,1056.93L2073.24,1100.31C2072.63,1120.96 2074.76,1129.14 2081.53,1129.98C2087.66,1130.75 2090.72,1122.94 2091.86,1119L2092.36,1130.28Z" style="fill:rgb(242,242,242);fill-rule:nonzero;"/>
                    <path d="M2127.36,1134.16L2133.56,1134.81L2133.32,1116.18L2133.8,1096.45C2134.32,1075.4 2134.26,1062.47 2122.11,1061.2C2111.89,1060.13 2110.22,1073.27 2109.97,1083.27L2116.04,1083.91C2116.22,1076.67 2117.64,1071.02 2122.24,1071.5C2127.23,1072.02 2127.46,1078.24 2127.14,1091.01L2127.12,1092.06C2125.6,1091.5 2123.31,1090.74 2120.3,1090.42C2113.53,1089.71 2108.4,1094.98 2107.92,1111.81C2107.55,1126.68 2110.7,1134.13 2117.67,1134.86C2121.89,1135.3 2124.91,1132.06 2126.95,1127.65L2127.36,1134.16ZM2119.59,1124.38C2115.76,1123.98 2114.66,1118.98 2114.91,1111.75C2115.12,1103.07 2117.89,1099.93 2121.98,1100.36C2124.03,1100.57 2125.68,1101.01 2126.89,1101.53L2126.54,1115.61C2125.45,1120.51 2122.98,1124.73 2119.59,1124.38Z" style="fill:rgb(242,242,242);fill-rule:nonzero;"/>
                    <path d="M2143.96,1135.72L2150.74,1136.31L2152.76,1038.13L2145.98,1037.54L2143.96,1135.72Z" style="fill:rgb(242,242,242);fill-rule:nonzero;"/>
                    <path d="M2159.65,1142.35L2165.72,1142.78L2183.26,1034.87L2177.18,1034.44L2159.65,1142.35Z" style="fill:rgb(242,242,242);fill-rule:nonzero;"/>
                    <path d="M2191.36,1045.54L2190.36,1139.44L2201.88,1139.96C2216.85,1140.63 2220.18,1128.53 2220.55,1093.89C2220.92,1059.39 2217.85,1046.73 2202.88,1046.06L2191.36,1045.54ZM2198.27,1058.5L2204.03,1058.76C2211.32,1059.09 2213.67,1066.44 2213.39,1093.57C2213.09,1120.83 2210.59,1127.96 2203.29,1127.63L2197.53,1127.37L2198.27,1058.5Z" style="fill:rgb(242,242,242);fill-rule:nonzero;"/>
                    <path d="M2230.45,1047.03L2230.14,1141.08L2243.84,1141.28C2256.83,1141.46 2259.09,1133.45 2259.15,1115.28C2259.19,1104.34 2257.55,1096.15 2252.7,1092.4C2256.75,1088.76 2258.24,1081.28 2258.28,1070.87C2258.33,1055.99 2255.28,1047.38 2244.28,1047.22L2230.45,1047.03ZM2237.39,1058.33L2244.37,1058.42C2249.55,1058.5 2251.58,1062.87 2251.55,1072.36C2251.52,1082.89 2249.46,1086.95 2244.46,1086.88L2237.3,1086.78L2237.39,1058.33ZM2237.26,1097.84L2244.43,1097.94C2249.8,1098.02 2252.35,1102.8 2252.31,1114.26C2252.27,1126.38 2250.4,1130.3 2244.13,1130.21L2237.15,1130.12L2237.26,1097.84Z" style="fill:rgb(242,242,242);fill-rule:nonzero;"/>
                    <path d="M2268.81,1141.21L2275.79,1141.07L2275.6,1099.84L2290.38,1099.55L2290.57,1140.78L2297.55,1140.64L2297.11,1047.25L2290.14,1047.39L2290.32,1086.51L2275.54,1086.8L2275.36,1047.68L2268.38,1047.82L2268.81,1141.21Z" style="fill:rgb(242,242,242);fill-rule:nonzero;"/>
                    <path d="M2350.21,1107.76C2349.89,1088.41 2346.35,1076.4 2337.46,1077.04C2333.05,1077.35 2330.42,1080.7 2328.69,1084.78C2328.94,1061.56 2331.15,1055.87 2335.31,1055.57C2339.79,1055.25 2341.44,1062.12 2341.57,1070.02L2348.42,1069.53C2348.2,1056.5 2345.03,1043.28 2335.05,1043.99C2324.69,1044.73 2320.99,1057.25 2321.68,1098.33C2322.2,1128.87 2326.05,1140.99 2336.67,1140.23C2347.41,1139.33 2350.53,1126.85 2350.21,1107.76ZM2336.05,1088.08C2340.33,1087.77 2342.73,1093.27 2342.97,1107.75C2343.21,1121.71 2341.27,1128.17 2336.47,1128.51C2331.61,1128.86 2329.25,1121.64 2328.75,1099.8C2329.76,1094.85 2331.95,1088.37 2336.05,1088.08Z" style="fill:rgb(242,242,242);fill-rule:nonzero;"/>
                    <path d="M2387.21,1087.23C2386.26,1050.8 2381.87,1039.67 2371.71,1040.8C2361.54,1041.92 2357.69,1053.96 2358.64,1090.39C2359.59,1126.7 2364.04,1137.68 2374.2,1136.56C2384.37,1135.43 2388.16,1123.54 2387.21,1087.23ZM2365.61,1089.62C2364.87,1061.47 2366.79,1053.87 2372.03,1053.29C2377.21,1052.72 2379.57,1059.85 2380.31,1088C2381.04,1116.15 2379.05,1123.49 2373.88,1124.06C2368.64,1124.64 2366.34,1117.77 2365.61,1089.62Z" style="fill:rgb(242,242,242);fill-rule:nonzero;"/>
                    <path d="M2402.17,1131.59L2408.88,1130.64L2405.77,1037.6L2401.62,1038.18L2393.06,1048.9L2393.49,1061.78L2399.6,1054.58L2402.17,1131.59Z" style="fill:rgb(242,242,242);fill-rule:nonzero;"/>
                    <path d="M2425.13,1128.05L2431.83,1126.93L2428.16,1033.97L2424.01,1034.67L2415.52,1045.6L2416.02,1058.47L2422.09,1051.11L2425.13,1128.05Z" style="fill:rgb(242,242,242);fill-rule:nonzero;"/>
                </g>
            </g>
        </g>
        <g>
            <g transform="matrix(0.533227,0,-0.747031,0.361678,2918.51,1132.65)">
                <g id="Anteater1" transform="matrix(-3.46625,-0.736774,-0.736774,3.46625,3498.67,1459.5)">
                    <g id="AE1">
                        <g id="aebody1">
                            <path d="M83.308,32.059C83.056,32.69 82.619,33.231 82.055,33.61C81.473,33.927 80.849,34.162 80.202,34.308L78.944,33.994C77.442,33.602 75.91,33.34 74.364,33.209C72.836,32.911 71.267,32.88 69.729,33.118C68.992,33.175 67.872,33.337 66.748,33.553C65.625,33.769 64.528,33.976 63.851,34.162L59.881,34.766C52.881,36.604 59.25,24.04 58.23,31.34C57.23,38.4 59.49,51.73 59.65,52.65C65.001,64.336 62.066,78.242 52.45,86.77C42.834,95.298 52.96,93.24 52.45,96.13C51.94,99.02 48.36,100.13 48.36,100.13C45.478,100.65 42.506,99.922 40.19,98.13C38.649,97.034 37.355,95.627 36.39,94C35.004,94.171 33.606,94.231 32.21,94.18C31.225,95.743 29.949,97.101 28.45,98.18C25.51,100.1 24.36,99.72 22.19,100.39C20.02,101.06 18.36,100.48 16.45,98.44C14.54,96.4 14.66,94.74 14.27,91.44C14.131,90.14 14.205,88.826 14.49,87.55C4.668,79.546 1.124,66.022 5.76,54.23L5.76,54.11C6,53.76 6.5,52.62 7.26,51C10,45 15.79,32.59 18.06,27.77C19.26,25.22 20.501,16.098 22.284,14.435C24.851,12.039 25.049,11.857 25.229,11.666C26.048,10.774 26.999,10.014 28.049,9.412C28.99,8.963 29.977,8.618 30.992,8.383L32.311,7.806C31.673,6.198 31.858,4.377 32.805,2.931C34.073,1.598 35.646,0.593 37.389,0.003C38.519,-0.043 40.714,0.398 41.495,1.338C42.56,2.807 43.302,4.485 43.672,6.261C44.622,6.283 45.565,6.433 46.475,6.705C48.687,7.365 52.47,8.589 57.296,10.412C59.448,11.243 61.412,11.795 63.078,12.46C70.603,15.453 73.043,17.952 73.043,17.952L80.478,24.051C80.481,24.053 80.484,24.054 80.487,24.056C83.456,25.477 84.729,29.09 83.308,32.059C83.308,32.059 83.308,32.059 83.308,32.059Z" style="fill:rgb(0,130,30);fill-rule:nonzero;"/>
                        </g>
                        <g id="stripes">
                            <path d="M17.51,28.8C17.51,28.8 31.51,41.07 37.17,43.8C42.83,46.53 48.17,48.47 51.98,48.62C54.456,48.697 56.934,48.573 59.39,48.25C59.394,49.482 59.6,50.705 60,51.87C60.825,54.022 61.53,56.219 62.11,58.45C62.28,59.37 62.58,61.99 62.58,61.99C62.58,61.99 42.74,58.45 38.44,56.31C34.62,54.43 23.76,42.73 22,40C20.24,37.27 16.33,31.34 16.33,31.34L17.51,28.8Z" style="fill:rgb(0,130,30);fill-rule:nonzero;"/>
                            <path d="M18.29,27C18.29,27 30.52,36.72 36,39.54C41.23,42.22 44.68,43.82 48.68,44.22C52.68,44.62 59,45.39 59,45.39L59.29,47.64C59.29,47.64 50.13,47.25 45.4,46C40.67,44.75 25,34.23 22.17,32C20.683,30.816 19.109,29.746 17.46,28.8L18.29,27Z" style="fill:rgb(0,130,30);fill-rule:nonzero;"/>
                            <path d="M15.88,32.29C17.939,36.42 20.517,40.272 23.55,43.75C28.83,49.91 34.79,55.57 36.66,56.31C38.53,57.05 42.28,59.31 46.53,60.37C49.503,61.15 52.532,61.695 55.59,62C58.83,62.35 60.21,62.67 61.47,62.67L62.61,62.67L62.53,66.26C62.53,66.26 47.53,65.12 42.79,62.67C38.05,60.22 30.36,55.36 28.06,52.67C25.76,49.98 22.61,46.05 21,43.75C19.39,41.45 16.59,35.75 15.88,34.75C15.17,33.75 15.31,33.46 15.31,33.46L15.88,32.29Z" style="fill:rgb(0,130,30);fill-rule:nonzero;"/>
                        </g>
                        <g transform="matrix(0.898871,-0.438214,0.438214,0.898871,-19.49,9.04)">
                            <g id="aehand1">
                                <ellipse cx="9.84" cy="46.74" rx="10.3" ry="7.55" style="fill:rgb(0,130,30);"/>
                            </g>
                        </g>
                    </g>
                    <g id="ae1_2_buttshadow">
                        <path d="M3.77,65.33C3.77,65.33 3.69,70.82 5.29,74.33C6.397,76.843 7.666,79.282 9.09,81.63C10.36,83.27 11.722,84.836 13.17,86.32C13.843,86.972 14.554,87.583 15.3,88.15C17.091,89.607 19.064,90.824 21.17,91.77C23.084,92.382 25.03,92.886 27,93.28C28.97,93.674 31.51,94.28 31.77,94.18C32.03,94.08 36.18,94.12 36.43,93.95C36.68,93.78 44.26,88.43 44.26,88.43L35.89,89.58L31.89,89.58C30.223,89.402 28.583,89.033 27,88.48C24.58,87.65 19.66,85.74 17.46,83.96C15.11,82.06 10.86,78.16 9.84,76.48C7.33,72.37 3.77,65.33 3.77,65.33Z" style="fill:rgb(0,130,30);fill-rule:nonzero;"/>
                    </g>
                    <g id="aeLegShadow">
                        <path d="M14.49,87.46C14.49,87.46 13.8,87.57 14.27,91.35C14.48,92.435 14.607,93.535 14.65,94.64C14.847,95.661 15.222,96.64 15.76,97.53C16.533,98.472 17.431,99.303 18.43,100C18.985,100.23 19.557,100.417 20.14,100.56C20.829,100.536 21.514,100.455 22.19,100.32C22.83,100.15 22.19,100.43 21.51,99.45C21.014,98.907 20.618,98.281 20.34,97.6C19.682,96.433 19.149,95.199 18.75,93.92C18.83,92.767 19.007,91.623 19.28,90.5L14.49,87.46Z" style="fill:rgb(0,130,30);fill-rule:nonzero;"/>
                    </g>
                    <g id="aeEye" transform="matrix(1,0,0,1,-2.64329,6.26263)">
                        <circle cx="42.39" cy="11.48" r="2.2" style="fill:rgb(0,130,30);"/>
                    </g>
                </g>
                <g transform="matrix(0.993623,-0.048072,0.0262725,0.994677,-30.4648,224.293)">
                    <g transform="matrix(0.611153,0,0.0054966,0.0397324,1402.3,1561.43)">
                        <rect x="3016.36" y="1407.03" width="242.779" height="182.528" style="fill:rgb(0,130,30);"/>
                    </g>
                    <g transform="matrix(1.03081,0,0.131936,0.953703,-305.504,108.62)">
                        <rect x="3016.36" y="1407.03" width="242.779" height="182.528" style="fill:rgb(0,130,30);"/>
                    </g>
                </g>
            </g>
            <g>
                <g id="Anteater11" serif:id="Anteater1" transform="matrix(-3.46625,-0.736774,-0.736774,3.46625,3498.67,1459.5)">
                    <g id="AE11" serif:id="AE1">
                        <g id="aebody11" serif:id="aebody1">
                            <path d="M83.308,32.059C83.056,32.69 82.619,33.231 82.055,33.61C81.473,33.927 80.849,34.162 80.202,34.308L78.944,33.994C77.442,33.602 75.91,33.34 74.364,33.209C72.836,32.911 71.267,32.88 69.729,33.118C68.992,33.175 67.872,33.337 66.748,33.553C65.625,33.769 64.528,33.976 63.851,34.162L59.881,34.766C52.881,36.604 59.25,24.04 58.23,31.34C57.23,38.4 59.49,51.73 59.65,52.65C65.001,64.336 62.066,78.242 52.45,86.77C42.834,95.298 52.96,93.24 52.45,96.13C51.94,99.02 48.36,100.13 48.36,100.13C45.478,100.65 42.506,99.922 40.19,98.13C38.649,97.034 37.355,95.627 36.39,94C35.004,94.171 33.606,94.231 32.21,94.18C31.225,95.743 29.949,97.101 28.45,98.18C25.51,100.1 24.36,99.72 22.19,100.39C20.02,101.06 18.36,100.48 16.45,98.44C14.54,96.4 14.66,94.74 14.27,91.44C14.131,90.14 14.205,88.826 14.49,87.55C4.668,79.546 1.124,66.022 5.76,54.23L5.76,54.11C6,53.76 6.5,52.62 7.26,51C10,45 15.79,32.59 18.06,27.77C19.26,25.22 20.501,16.098 22.284,14.435C24.851,12.039 25.049,11.857 25.229,11.666C26.048,10.774 26.999,10.014 28.049,9.412C28.99,8.963 29.977,8.618 30.992,8.383L32.311,7.806C31.673,6.198 31.858,4.377 32.805,2.931C34.073,1.598 35.646,0.593 37.389,0.003C38.519,-0.043 40.714,0.398 41.495,1.338C42.56,2.807 43.302,4.485 43.672,6.261C44.622,6.283 45.565,6.433 46.475,6.705C48.687,7.365 52.47,8.589 57.296,10.412C59.448,11.243 61.412,11.795 63.078,12.46C70.603,15.453 73.043,17.952 73.043,17.952L80.478,24.051C80.481,24.053 80.484,24.054 80.487,24.056C83.456,25.477 84.729,29.09 83.308,32.059C83.308,32.059 83.308,32.059 83.308,32.059Z" style="fill:rgb(167,169,172);fill-rule:nonzero;"/>
                        </g>
                        <g id="stripes1" serif:id="stripes">
                            <path d="M17.51,28.8C17.51,28.8 31.51,41.07 37.17,43.8C42.83,46.53 48.17,48.47 51.98,48.62C54.456,48.697 56.934,48.573 59.39,48.25C59.394,49.482 59.6,50.705 60,51.87C60.825,54.022 61.53,56.219 62.11,58.45C62.28,59.37 62.58,61.99 62.58,61.99C62.58,61.99 42.74,58.45 38.44,56.31C34.62,54.43 23.76,42.73 22,40C20.24,37.27 16.33,31.34 16.33,31.34L17.51,28.8Z" style="fill:rgb(35,31,32);fill-rule:nonzero;"/>
                            <path d="M18.29,27C18.29,27 30.52,36.72 36,39.54C41.23,42.22 44.68,43.82 48.68,44.22C52.68,44.62 59,45.39 59,45.39L59.29,47.64C59.29,47.64 50.13,47.25 45.4,46C40.67,44.75 25,34.23 22.17,32C20.683,30.816 19.109,29.746 17.46,28.8L18.29,27Z" style="fill:white;fill-rule:nonzero;"/>
                            <path d="M15.88,32.29C17.939,36.42 20.517,40.272 23.55,43.75C28.83,49.91 34.79,55.57 36.66,56.31C38.53,57.05 42.28,59.31 46.53,60.37C49.503,61.15 52.532,61.695 55.59,62C58.83,62.35 60.21,62.67 61.47,62.67L62.61,62.67L62.53,66.26C62.53,66.26 47.53,65.12 42.79,62.67C38.05,60.22 30.36,55.36 28.06,52.67C25.76,49.98 22.61,46.05 21,43.75C19.39,41.45 16.59,35.75 15.88,34.75C15.17,33.75 15.31,33.46 15.31,33.46L15.88,32.29Z" style="fill:white;fill-rule:nonzero;"/>
                        </g>
                        <g transform="matrix(0.898871,-0.438214,0.438214,0.898871,-19.49,9.04)">
                            <g id="aehand11" serif:id="aehand1">
                                <ellipse cx="9.84" cy="46.74" rx="10.3" ry="7.55" style="fill:rgb(188,190,192);"/>
                            </g>
                        </g>
                    </g>
                    <g id="ae1_2_buttshadow1" serif:id="ae1_2_buttshadow">
                        <path d="M3.77,65.33C3.77,65.33 3.69,70.82 5.29,74.33C6.397,76.843 7.666,79.282 9.09,81.63C10.36,83.27 11.722,84.836 13.17,86.32C13.843,86.972 14.554,87.583 15.3,88.15C17.091,89.607 19.064,90.824 21.17,91.77C23.084,92.382 25.03,92.886 27,93.28C28.97,93.674 31.51,94.28 31.77,94.18C32.03,94.08 36.18,94.12 36.43,93.95C36.68,93.78 44.26,88.43 44.26,88.43L35.89,89.58L31.89,89.58C30.223,89.402 28.583,89.033 27,88.48C24.58,87.65 19.66,85.74 17.46,83.96C15.11,82.06 10.86,78.16 9.84,76.48C7.33,72.37 3.77,65.33 3.77,65.33Z" style="fill:rgb(147,149,152);fill-rule:nonzero;"/>
                    </g>
                    <g id="aeLegShadow1" serif:id="aeLegShadow">
                        <path d="M14.49,87.46C14.49,87.46 13.8,87.57 14.27,91.35C14.48,92.435 14.607,93.535 14.65,94.64C14.847,95.661 15.222,96.64 15.76,97.53C16.533,98.472 17.431,99.303 18.43,100C18.985,100.23 19.557,100.417 20.14,100.56C20.829,100.536 21.514,100.455 22.19,100.32C22.83,100.15 22.19,100.43 21.51,99.45C21.014,98.907 20.618,98.281 20.34,97.6C19.682,96.433 19.149,95.199 18.75,93.92C18.83,92.767 19.007,91.623 19.28,90.5L14.49,87.46Z" style="fill:rgb(147,149,152);fill-rule:nonzero;"/>
                    </g>
                    <g id="aeEye1" serif:id="aeEye" transform="matrix(1,0,0,1,-2.64329,6.26263)">
                        <circle cx="42.39" cy="11.48" r="2.2" style="fill:rgb(35,31,32);"/>
                    </g>
                </g>
                <g transform="matrix(0.993623,-0.048072,0.0262725,0.994677,-30.4648,224.293)">
                    <g transform="matrix(0.597423,-0.11635,0.012941,0.0381253,1441.16,1914.94)">
                        <rect x="3016.36" y="1407.03" width="242.779" height="182.528" style="fill:rgb(94,83,65);"/>
                    </g>
                    <g transform="matrix(1.03081,0,0.131936,0.953703,-305.504,108.62)">
                        <rect x="3016.36" y="1407.03" width="242.779" height="182.528" style="fill:rgb(94,83,65);"/>
                    </g>
                    <g transform="matrix(0.274218,-0.000144332,0.0378887,0.274205,3034.73,1493.43)">
                        <path id="px4Vka39o" d="M26,245.6C26,245.4 38.5,213.8 53.9,175.3C69.2,136.9 84.5,98.4 87.9,89.8L94.2,74L105.7,74C116.2,74 117.2,74.1 116.6,75.8C116.2,76.7 100.8,115.4 82.3,161.8L48.8,246L37.4,246C31.1,246 26,245.8 26,245.6Z" style="fill:rgb(62,54,43);fill-rule:nonzero;"/>
                        <path id="pM4x3K3QA" d="M82,245.3C82,244.8 97.3,206.3 115.9,159.5L149.8,74.5L161.4,74.2L173.1,73.9L171.7,77.2C171,79 155.6,117.7 137.5,163.2L104.5,246L93.3,246C87.1,246 82,245.7 82,245.3Z" style="fill:rgb(62,54,43);fill-rule:nonzero;"/>
                        <path id="peEpkmn69" d="M189,246L189,74L214,74L214,246L189,246Z" style="fill:rgb(62,54,43);fill-rule:nonzero;"/>
                        <path id="pFNWP5AwA" d="M230.3,245.3C227,244.7 222.4,239.6 221.6,235.9C221.3,234.2 221,199.6 221.1,159.1C221.1,104.8 221.4,84.6 222.3,82.1C223,80.2 224.8,77.7 226.3,76.6C229,74.6 230.4,74.5 261.8,74.2C307.4,73.9 305,72 305,106.8L305,129L280,129L280,95L246,95L246,225L291.8,225L297.9,234.9C301.3,240.3 304,245 304,245.4C304,246.1 233.9,246 230.3,245.3Z" style="fill:rgb(62,54,43);fill-rule:nonzero;"/>
                        <path id="p10O7zfcod" d="M306.7,235.5L300.1,225L369,225L369,190.5L341.8,165C322.9,147.2 314.2,138.3 312.9,135.5C311.3,132 311,128.7 311,108.5C311,87.8 311.2,85.1 313,81.2C316.2,74.2 317.2,74 352.6,74C386.5,74 387.9,74.2 391.5,80.3C393.3,83.2 393.5,85.8 393.8,105.3L394.2,127L369,127L369,95L336,95L336,126.7L363,152.1C378.3,166.5 390.8,179 391.8,181C393.3,184.1 393.5,187.7 393.5,210C393.5,237.8 393.2,239.3 387.7,243.4C385,245.4 383.6,245.5 349.1,245.8L313.3,246.1L306.7,235.5Z" style="fill:rgb(62,54,43);fill-rule:nonzero;"/>
                        <path id="pDeo5WbVH" d="M413.5,246L400.1,225L457,225L457,190.2L429.9,164.4C413.1,148.5 402.2,137.4 401.4,135.3C400.3,132.9 400,126.1 400,107.8C400,85.5 400.2,83.2 402,80.3C405.8,73.9 405.2,74 455.2,74L500.5,74.1L507.3,85.1L514,96L514,225L559.5,225L565.5,234.7C568.8,240 571.7,244.8 571.8,245.2C572,245.6 555.9,246 536.1,246C496,246 494.7,245.8 491,239.8C489.1,236.6 489,234.9 489,165.8L489,95L425,95L425.1,111.3L425.2,127.5L452.2,152.9C469.2,168.9 479.8,179.6 480.6,181.7C481.7,184.1 482,191 482,210C482,237.4 481.6,240 476.4,243.5C473.7,245.4 471.4,245.5 443.5,245.8L413.5,246Z" style="fill:rgb(62,54,43);fill-rule:nonzero;"/>
                        <path id="pJ6tjuRD9" d="M548,129L548,95L522.5,95L509.1,74L535.6,74C566.3,74 567.9,74.3 571,81.2C572.7,85 573,87.9 573,107.3L573,129L548,129Z" style="fill:rgb(62,54,43);fill-rule:nonzero;"/>
                    </g>
                </g>
            </g>
        </g>
    </g>
    <defs>
        <linearGradient id="_Linear1" x1="0" y1="0" x2="1" y2="0" gradientUnits="userSpaceOnUse" gradientTransform="matrix(1.32262e-13,2160,-2160,1.32262e-13,1942.15,0)"><stop offset="0" style="stop-color:rgb(148,230,255);stop-opacity:1"/><stop offset="1" style="stop-color:rgb(174,236,255);stop-opacity:1"/></linearGradient>
    </defs>
</svg>
