<?xml version="1.0" encoding="UTF-8" standalone="no"?>
<!DOCTYPE svg PUBLIC "-//W3C//DTD SVG 1.1//EN" "http://www.w3.org/Graphics/SVG/1.1/DTD/svg11.dtd">
<svg width="100%" height="100%" viewBox="0 0 3840 2160" version="1.1" xmlns="http://www.w3.org/2000/svg" xmlns:xlink="http://www.w3.org/1999/xlink" xml:space="preserve" xmlns:serif="http://www.serif.com/" style="fill-rule:evenodd;clip-rule:evenodd;stroke-linecap:round;stroke-linejoin:round;stroke-miterlimit:1.5;">
    <rect id="Artboard1" x="0" y="0" width="3840" height="2160" style="fill:url(#_Linear1);"/>
    <clipPath id="_clip2">
        <rect id="Artboard11" serif:id="Artboard1" x="0" y="0" width="3840" height="2160"/>
    </clipPath>
    <g clip-path="url(#_clip2)">
        <g transform="matrix(3.94828,0,0,3.94828,-5726,-3920.92)">
            <path d="M2054.72,-308.461L2077.3,-306.981L1964.73,1410.52L2300.51,-277.594L2322.7,-273.18L1986.92,1414.93L2540.18,-214.909L2561.6,-207.636L2008.34,1422.2L2769.6,-121.478L2789.9,-111.471L2028.64,1432.21L2984.88,1.1L3003.69,13.67L2047.45,1444.78L3182.31,150.728L3199.32,165.646L2064.46,1459.7L3358.51,324.845L3373.43,341.856L2079.38,1476.71L3510.49,520.473L3523.06,539.286L2091.95,1495.53L3635.63,734.264L3645.64,754.557L2101.96,1515.82L3731.8,962.561L3739.07,983.986L2109.23,1537.24L3797.34,1201.46L3801.76,1223.65L2113.64,1559.43L3831.14,1446.86L3832.62,1469.44L2115.12,1582.01L3832.62,1694.58L3831.14,1717.16L2113.64,1604.59L3801.76,1940.37L3797.34,1962.57L2109.23,1626.78L3739.07,2180.04L3731.8,2201.46L2101.96,1648.2L3645.64,2409.47L3635.63,2429.76L2091.95,1668.5L3523.06,2624.74L3510.49,2643.55L2079.38,1687.31L3373.43,2822.16L3358.51,2839.18L2064.46,1704.32L3199.32,2998.38L3182.31,3013.29L2047.45,1719.24L3003.69,3150.35L2984.88,3162.92L2028.64,1731.81L2789.9,3275.49L2769.6,3285.5L2008.34,1741.82L2561.6,3371.66L2540.18,3378.93L1986.92,1749.09L2322.7,3437.2L2300.51,3441.62L1964.73,1753.5L2077.3,3471L2054.72,3472.48L1942.15,1754.98L1829.58,3472.48L1807,3471L1919.57,1753.5L1583.79,3441.62L1561.6,3437.2L1897.38,1749.09L1344.12,3378.93L1322.7,3371.66L1875.96,1741.82L1114.7,3285.5L1094.4,3275.49L1855.66,1731.81L899.426,3162.92L880.613,3150.35L1836.85,1719.24L701.996,3013.29L684.985,2998.38L1819.84,1704.32L525.786,2839.18L510.868,2822.16L1804.92,1687.31L373.81,2643.55L361.24,2624.74L1792.35,1668.5L248.669,2429.76L238.662,2409.47L1782.35,1648.2L152.504,2201.46L145.231,2180.04L1775.07,1626.78L86.96,1962.57L82.546,1940.37L1770.66,1604.59L53.159,1717.16L51.679,1694.58L1769.18,1582.01L51.679,1469.44L53.159,1446.86L1770.66,1559.43L82.546,1223.65L86.96,1201.46L1775.07,1537.24L145.231,983.986L152.504,962.561L1782.35,1515.82L238.662,754.557L248.669,734.264L1792.35,1495.53L361.24,539.286L373.81,520.473L1804.92,1476.71L510.868,341.856L525.786,324.845L1819.84,1459.7L684.985,165.646L701.996,150.728L1836.85,1444.78L880.613,13.67L899.426,1.1L1855.66,1432.21L1094.4,-111.471L1114.7,-121.478L1875.96,1422.2L1322.7,-207.636L1344.12,-214.909L1897.38,1414.93L1561.6,-273.18L1583.79,-277.594L1919.57,1410.52L1807,-306.981L1829.58,-308.461L1942.15,1409.04L2054.72,-308.461Z" style="fill:white;fill-opacity:0.1;"/>
        </g>
        <g id="Hills">
            <g transform="matrix(2.38228,0,0,2.6108,-1646.98,-767.59)">
                <ellipse cx="915.5" cy="1497" rx="1004.5" ry="720" style="fill:rgb(0,131,47);"/>
                <clipPath id="_clip3">
                    <ellipse cx="915.5" cy="1497" rx="1004.5" ry="720"/>
                </clipPath>
                <g clip-path="url(#_clip3)">
                    <g transform="matrix(0.498582,0,0,0.383025,552.045,294.006)">
                        <path d="M1668.91,2004.73C483.807,1843.25 363.096,1427.09 1422.58,1336.27L1471.08,1268.42C196.522,1377.67 341.737,1878.32 1767.42,2072.58L1668.91,2004.73Z" style="fill:rgb(255,241,151);fill-opacity:0.9;"/>
                    </g>
                </g>
            </g>
            <g transform="matrix(2.38228,0,0,2.6108,1533.02,-948.59)">
                <ellipse cx="915.5" cy="1497" rx="1004.5" ry="720" style="fill:rgb(0,190,47);"/>
                <clipPath id="_clip4">
                    <ellipse cx="915.5" cy="1497" rx="1004.5" ry="720"/>
                </clipPath>
                <g clip-path="url(#_clip4)">
                    <g transform="matrix(0.415144,0,0,0.467858,-614.231,195.983)">
                        <path d="M2706.03,2240.48C2715.82,2231.68 2692.15,2217.82 2682.85,2208.51C2609.14,2134.8 2513.95,2052.96 2405.77,2036.95C2226.02,2010.34 1861.48,2029.64 1774.7,1856.12C1773.07,1852.85 1763.62,1838.27 1760.41,1838.27L1836.64,1757.2C1839.85,1757.2 1849.3,1771.78 1850.93,1775.05C1937.71,1948.57 2302.25,1929.27 2482,1955.88C2590.18,1971.89 2685.37,2053.73 2759.08,2127.44C2768.38,2136.74 2792.05,2150.61 2782.26,2159.41C2777.47,2163.72 2701.24,2244.79 2706.03,2240.48Z" style="fill:rgb(255,241,151);"/>
                    </g>
                </g>
            </g>
        </g>
        <g id="Plane" transform="matrix(1,0,0,1,292.573,33.9451)">
            <g transform="matrix(-0.807715,0,0,0.807715,1056.62,274.284)">
                <path d="M407.55,242.19C407.55,243.08 407.4,243.65 407.09,244.13C406.79,244.62 406.33,245.01 405.72,245.56C405.72,245.56 404.45,245.81 404.45,245.82C404.27,245.86 402.56,246.14 399.98,247.09C397.93,247.83 397.16,247.98 395.76,249.01C395.12,249.38 394.18,250.02 393.26,250.69C392.34,251.35 391.44,252.03 390.91,252.49C390.9,252.49 390.08,253.06 389.25,253.62C388.42,254.18 387.6,254.75 387.59,254.75C382.07,259.43 382.91,256.38 381.89,263.68C380.91,270.74 383.15,284.07 383.31,284.99L383.31,285.01C385.02,288.73 385.97,292.86 385.97,297.22C385.97,305.94 382.16,313.77 376.11,319.13C376.11,319.13 376.62,325.6 376.11,328.49C375.59,331.38 372.02,332.5 372.02,332.5C372.02,332.5 367.93,333.52 363.85,330.45C361.83,328.94 360.69,327.43 360.05,326.29C358.68,326.46 357.29,326.52 355.87,326.47C354.99,327.78 353.68,329.43 352.11,330.45C349.17,332.37 348.02,331.99 345.85,332.66C343.68,333.33 342.02,332.75 340.11,330.71C338.19,328.67 338.32,327.01 337.93,323.69C337.76,322.23 337.92,320.87 338.15,319.8C331.76,314.52 327.61,306.6 327.43,297.84C327.35,293.86 328.06,290.05 329.42,286.57L329.48,286.45C329.64,286.1 330.16,284.96 330.92,283.34C330.92,283.33 330.92,283.33 330.93,283.32C333.68,277.38 339.45,264.93 341.72,260.11C342.92,257.56 344.01,254.92 344.9,252.65C346.18,249.38 346.28,249.13 346.36,248.88C346.37,248.87 346.99,246.79 347.93,245.63C348.58,244.82 349.33,244.08 350.14,243.43L351.08,242.38C350.18,241.47 349.07,239.86 349.42,237.77C349.68,236.24 351.78,233.37 352.29,233.11C353.33,232.58 355.46,232.03 356.57,232.54C358.16,233.26 359.69,234.9 360.62,236.04C361.48,235.65 362.4,235.38 363.34,235.23C365.63,234.87 369.6,234.32 374.74,233.9C377.04,233.72 379.05,233.37 380.84,233.25C388.92,232.7 392.2,233.9 392.2,233.9L392.21,233.9L401.55,236.19C404.86,236.19 407.55,238.88 407.55,242.19Z" style="fill:rgb(167,169,172);fill-rule:nonzero;"/>
                <path d="M341.17,261.13C341.17,261.13 355.21,273.4 360.83,276.08C366.45,278.75 371.81,280.76 375.64,280.9C379.47,281.04 383.05,280.53 383.05,280.53C383.05,280.53 383.03,282.82 383.61,284.2C384.2,285.59 385.56,289.86 385.72,290.78C385.89,291.7 386.19,294.31 386.19,294.31C386.19,294.31 366.35,290.78 362.05,288.63C358.28,286.75 347.43,275.05 345.64,272.35C343.85,269.65 339.97,263.69 339.97,263.69L341.17,261.13Z" style="fill:rgb(35,31,32);fill-rule:nonzero;"/>
                <path d="M341.95,259.31C341.95,259.31 354.18,269.05 359.68,271.87C364.91,274.55 368.36,276.15 372.36,276.55C376.43,276.96 382.68,277.72 382.68,277.72L382.97,279.97C382.97,279.97 373.79,279.58 369.06,278.29C364.43,277.02 348.68,266.57 345.83,264.32C343.15,262.21 341.13,261.12 341.13,261.12L341.95,259.31Z" style="fill:white;fill-rule:nonzero;"/>
                <path d="M339.54,264.62C339.54,264.62 341.93,269.91 347.21,276.08C352.49,282.24 358.44,287.9 360.32,288.65C362.19,289.4 365.94,291.69 370.19,292.71C374.45,293.73 376.02,293.97 379.25,294.32C382.48,294.68 383.87,295 385.12,294.99C386.37,294.98 386.26,294.99 386.26,294.99L386.18,298.59C386.18,298.59 371.2,297.45 366.44,294.99C361.67,292.54 354.01,287.69 351.72,284.96C349.42,282.24 346.26,278.38 344.66,276.08C343.05,273.78 340.26,268.11 339.54,267.13C338.82,266.15 338.97,265.84 338.97,265.84L339.54,264.62Z" style="fill:white;fill-rule:nonzero;"/>
                <path d="M336.803,285.94C341.917,283.448 344.581,278.388 342.754,274.64C340.926,270.892 335.3,269.874 330.186,272.367C325.073,274.86 322.409,279.919 324.236,283.667C326.063,287.415 331.69,288.433 336.803,285.94Z" style="fill:rgb(188,190,192);fill-rule:nonzero;"/>
                <path d="M327.429,297.66C327.429,297.66 327.349,303.15 328.949,306.64C330.059,309.07 331.929,312.83 332.749,313.95C333.569,315.07 336.079,317.96 336.839,318.64C337.599,319.32 337.589,319.4 338.969,320.47C340.329,321.53 342.759,323.27 344.839,324.09C346.579,324.77 350.629,325.62 350.629,325.62C350.629,325.62 355.139,326.6 355.399,326.51C355.659,326.42 359.809,326.46 360.069,326.29C360.329,326.12 367.889,320.77 367.889,320.77L359.529,321.92C359.529,321.92 356.549,321.97 355.529,321.88C354.129,321.75 352.419,321.41 350.679,320.82C348.259,320 343.339,318.09 341.139,316.31C338.789,314.4 334.539,310.5 333.509,308.82C330.989,304.7 327.429,297.66 327.429,297.66Z" style="fill:rgb(147,149,152);fill-rule:nonzero;"/>
                <path d="M338.15,319.8C338.15,319.8 337.46,319.91 337.93,323.69C338.4,327.47 338.31,326.98 338.31,326.98C338.31,326.98 338.73,329.03 339.42,329.87C340.11,330.71 341.509,332.06 342.089,332.34C342.669,332.62 343.8,332.9 343.8,332.9C343.8,332.9 345.219,332.83 345.849,332.66C346.479,332.49 345.89,332.77 345.17,331.79C344.45,330.81 344.49,331.02 344,329.94C343.51,328.86 342.47,327.05 342.4,326.26C342.33,325.47 342.93,322.83 342.93,322.83L338.15,319.8Z" style="fill:rgb(147,149,152);fill-rule:nonzero;"/>
                <path d="M366.05,246.02C367.265,246.02 368.25,245.035 368.25,243.82C368.25,242.605 367.265,241.62 366.05,241.62C364.835,241.62 363.85,242.605 363.85,243.82C363.85,245.035 364.835,246.02 366.05,246.02Z" style="fill:rgb(35,31,32);fill-rule:nonzero;"/>
            </g>
            <g>
                <path d="M949.551,510.878L1019.82,510.878L1084.58,446.119L1084.58,554.902L1019.82,510.878" style="fill:none;stroke:rgb(102,102,102);stroke-width:6px;"/>
                <g>
                    <g transform="matrix(0.945519,0,0,1.05354,30.3405,-26.0213)">
                        <ellipse cx="563.578" cy="481.418" rx="4.86" ry="27.824" style="fill:rgb(86,90,91);"/>
                    </g>
                    <g transform="matrix(0.945519,0,0,1.05354,30.3405,44.6516)">
                        <ellipse cx="563.578" cy="481.418" rx="4.86" ry="27.824" style="fill:rgb(86,90,91);"/>
                    </g>
                    <path d="M559.342,506.43L582.236,506.43L582.236,528.717L559.342,528.717C552.286,528.717 546.558,523.723 546.558,517.573C546.558,511.423 552.286,506.43 559.342,506.43Z" style="fill:rgb(64,63,68);"/>
                </g>
                <path d="M579,480L615.066,481.283L612.888,552.711L583,552.553C578.892,553.596 576.005,549.023 576,543L571.194,489C571.229,483.671 573.348,480.233 579,480Z" style="fill:rgb(60,37,21);"/>
                <path d="M860,490C882.457,483.82 895.472,471.757 902.027,455.669C919.19,411.303 955.951,441.273 956.833,467.595C957.354,483.125 957.689,498.495 948.82,512.758L860,490Z" style="fill:rgb(255,49,49);"/>
                <path d="M612.888,552.711L615.066,481.283L735.228,485.56C752.751,500.359 771.571,501.566 791.773,487.572L860,490C882.717,489.425 902.689,492.655 919.722,497.867C951.785,505.308 964.524,512.97 923.438,525.032C876.081,543.585 825.459,552.678 772,553.553L612.888,552.711Z" style="fill:rgb(255,101,101);"/>
                <g>
                    <g transform="matrix(1.07918,0,0.158184,0.998736,-123.459,0.66831)">
                        <rect x="645.741" y="455.577" width="6.999" height="73.178" style="fill:rgb(141,150,159);"/>
                    </g>
                    <g transform="matrix(1.07918,0,0.165756,1.04654,-86.7053,-21.1116)">
                        <rect x="645.741" y="455.577" width="6.999" height="73.178" style="fill:rgb(141,150,159);"/>
                    </g>
                </g>
                <g>
                    <path d="M640.23,443.928L668.284,443.78C691.134,444.062 713.064,448.364 727.692,454.701C729.31,455.403 729.195,456.747 727.574,456.72C688.178,456.059 638.627,456.901 629.246,453.695C619.06,450.806 620.187,448.262 632.436,444.895L640.23,443.928Z" style="fill:rgb(255,49,49);"/>
                    <g transform="matrix(1,0,0,1,10.0827,84.9749)">
                        <path d="M640.23,443.928L668.284,443.78C691.134,444.062 713.064,448.364 727.692,454.701C729.31,455.403 729.195,456.747 727.574,456.72C688.178,456.059 638.627,456.901 629.246,453.695C619.06,450.806 620.187,448.262 632.436,444.895L640.23,443.928Z" style="fill:rgb(255,53,53);"/>
                    </g>
                </g>
            </g>
            <g transform="matrix(1,0,0,1,-311,8)">
                <g transform="matrix(1,0,0,0.485844,353.114,74.5995)">
                    <path d="M2710.17,1028.67C2714.55,1033.05 2671.73,1052.54 2666.4,1054.84C2498.52,1127.37 2351.74,1150.78 2168.36,1137.68C1804.47,1111.69 1362.42,925.74 1039.29,1176.49L1039.29,530.188C1362.42,279.442 1804.47,465.397 2168.36,491.387C2351.74,504.486 2445.96,511.547 2613.84,439.021C2619.17,436.718 2661.99,417.233 2657.61,412.851L2710.17,1028.67Z" style="fill:rgb(255,122,122);"/>
                </g>
                <g transform="matrix(1,0,0,0.485844,353.114,13.5995)">
                    <path d="M1279.58,732.674L1332.27,1054.77L1342.1,1052.83L1367.21,690.897L1358.85,692.544L1336.54,1034.52L1283.12,707.462L1273.77,709.303L1252.13,1049.62L1198.54,724.124L1189.68,725.868L1248.18,1071.34L1258.01,1069.4L1279.58,732.674Z" style="fill:rgb(242,242,242);fill-rule:nonzero;"/>
                    <path d="M1420.37,1046.94L1506.58,1047.03L1506.58,1032.28L1428.28,1032.21L1428.32,867.487L1496,867.552L1496,853.317L1428.32,853.252L1428.36,706.326L1505.91,706.401L1505.92,691.658L1420.45,691.575L1420.37,1046.94Z" style="fill:rgb(242,242,242);fill-rule:nonzero;"/>
                    <path d="M1554.22,691.632L1545.94,1050.66L1594.3,1055.38C1637.72,1059.63 1645.69,1025.29 1647.14,962.316C1648.19,916.612 1641.59,881.357 1620.13,868.064C1640.35,859.86 1646.25,829.389 1647.22,787.24C1648.34,738.489 1639.83,699.994 1602.82,696.379L1554.22,691.632ZM1561.78,707.13L1602.24,711.082C1630.61,713.853 1640.42,738.733 1639.31,786.976C1638.12,838.774 1628.18,862.234 1602.78,859.244L1558.38,854.398L1561.78,707.13ZM1558.04,869.125L1602.45,873.463C1628.36,875.993 1640.54,905.177 1639.25,961.037C1637.81,1023.5 1628.43,1044.47 1594.63,1041.17L1554.16,1037.21L1558.04,869.125Z" style="fill:rgb(242,242,242);fill-rule:nonzero;"/>
                    <path d="M1724.2,940.924L1731.85,715.237L1723.97,714.105L1716.32,939.792C1713.31,1028.55 1707.81,1052.22 1677.75,1047.9L1667.89,1046.49L1667.36,1062.21L1677.21,1063.62C1714.67,1069 1720.87,1039.31 1724.2,940.924Z" style="fill:rgb(242,242,242);fill-rule:nonzero;"/>
                    <path d="M1747.38,1073.86L1756,1075.34L1776.52,972.745L1846.91,984.831L1858.89,1093L1867.5,1094.48L1826.23,730.791L1817.37,729.27L1747.38,1073.86ZM1779.33,958.433L1820.97,750.296L1845.29,969.758L1779.33,958.433Z" style="fill:rgb(242,242,242);fill-rule:nonzero;"/>
                    <path d="M1903.48,1101.36L1911.12,1102.62L1923.85,763.009L1967.74,1111.97L1975.87,1113.31L2047.39,784.933L2033.73,1122.87L2041.36,1124.12L2055.41,769.936L2042.36,767.782L1972.7,1092.9L1930.09,749.248L1917.29,747.135L1903.48,1101.36Z" style="fill:rgb(242,242,242);fill-rule:nonzero;"/>
                    <path d="M2138.83,1134.4L2225.73,1139.78L2225.95,1124.53L2147.19,1120.17C2156.62,1100.4 2176.77,1057.4 2187,1033.62C2208.79,980.038 2226.78,932.324 2227.71,868.803C2228.51,813.921 2214.92,780.02 2187.03,778.293C2161.1,776.689 2144.06,809.713 2143.14,872.725L2151.04,873.214C2151.86,817.316 2166.56,792.286 2186.8,793.538C2208.78,794.898 2220.26,820.532 2219.55,869.315C2218.7,927.246 2202.21,973.527 2180.2,1025.57C2158.44,1077.12 2139.12,1114.58 2139.12,1114.58L2138.83,1134.4Z" style="fill:rgb(242,242,242);fill-rule:nonzero;"/>
                    <path d="M2360.38,960.194C2358.92,830.08 2346.97,777.761 2308.7,779.581C2270.42,781.401 2259.66,834.8 2261.12,964.914C2262.58,1095.54 2274.52,1146.84 2312.8,1145.02C2351.07,1143.2 2361.85,1090.82 2360.38,960.194ZM2269.02,964.538C2267.6,838.49 2278.5,796.273 2308.87,794.829C2339.24,793.385 2351.07,834.522 2352.48,960.57C2353.9,1087.13 2343,1128.33 2312.63,1129.77C2282.25,1131.21 2270.44,1091.09 2269.02,964.538Z" style="fill:rgb(242,242,242);fill-rule:nonzero;"/>
                    <path d="M2395.39,1132.05L2481.99,1116.25L2481.34,1101.06L2402.88,1115.89C2411.11,1093.97 2428.64,1046.36 2437.44,1020.26C2456,961.752 2471.12,909.994 2468.4,846.693C2466.04,792.001 2450.6,761.644 2422.8,766.718C2396.97,771.432 2381.94,808.369 2384.65,871.164L2392.52,869.727C2390.12,814.022 2403.28,785.591 2423.45,781.91C2445.35,777.914 2458.23,800.573 2460.32,849.188C2462.81,906.918 2449.09,956.887 2430.22,1013.92C2411.58,1070.4 2394.54,1112.3 2394.54,1112.3L2395.39,1132.05Z" style="fill:rgb(242,242,242);fill-rule:nonzero;"/>
                    <path d="M2535.2,1102.77L2542.78,1100.62L2519.16,746.544L2513.04,748.273L2487.22,790.979L2488.36,808.104L2512.85,767.827L2535.2,1102.77Z" style="fill:rgb(242,242,242);fill-rule:nonzero;"/>
                </g>
            </g>
        </g>
        <g>
            <g transform="matrix(0.533227,0,-0.747031,0.361678,2918.51,1132.65)">
                <g id="Anteater1" transform="matrix(-3.46625,-0.736774,-0.736774,3.46625,3498.67,1459.5)">
                    <g id="AE1">
                        <g id="aebody1">
                            <path d="M83.308,32.059C83.056,32.69 82.619,33.231 82.055,33.61C81.473,33.927 80.849,34.162 80.202,34.308L78.944,33.994C77.442,33.602 75.91,33.34 74.364,33.209C72.836,32.911 71.267,32.88 69.729,33.118C68.992,33.175 67.872,33.337 66.748,33.553C65.625,33.769 64.528,33.976 63.851,34.162L59.881,34.766C52.881,36.604 59.25,24.04 58.23,31.34C57.23,38.4 59.49,51.73 59.65,52.65C65.001,64.336 62.066,78.242 52.45,86.77C42.834,95.298 52.96,93.24 52.45,96.13C51.94,99.02 48.36,100.13 48.36,100.13C45.478,100.65 42.506,99.922 40.19,98.13C38.649,97.034 37.355,95.627 36.39,94C35.004,94.171 33.606,94.231 32.21,94.18C31.225,95.743 29.949,97.101 28.45,98.18C25.51,100.1 24.36,99.72 22.19,100.39C20.02,101.06 18.36,100.48 16.45,98.44C14.54,96.4 14.66,94.74 14.27,91.44C14.131,90.14 14.205,88.826 14.49,87.55C4.668,79.546 1.124,66.022 5.76,54.23L5.76,54.11C6,53.76 6.5,52.62 7.26,51C10,45 15.79,32.59 18.06,27.77C19.26,25.22 20.501,16.098 22.284,14.435C24.851,12.039 25.049,11.857 25.229,11.666C26.048,10.774 26.999,10.014 28.049,9.412C28.99,8.963 29.977,8.618 30.992,8.383L32.311,7.806C31.673,6.198 31.858,4.377 32.805,2.931C34.073,1.598 35.646,0.593 37.389,0.003C38.519,-0.043 40.714,0.398 41.495,1.338C42.56,2.807 43.302,4.485 43.672,6.261C44.622,6.283 45.565,6.433 46.475,6.705C48.687,7.365 52.47,8.589 57.296,10.412C59.448,11.243 61.412,11.795 63.078,12.46C70.603,15.453 73.043,17.952 73.043,17.952L80.478,24.051C80.481,24.053 80.484,24.054 80.487,24.056C83.456,25.477 84.729,29.09 83.308,32.059C83.308,32.059 83.308,32.059 83.308,32.059Z" style="fill:rgb(0,130,30);fill-rule:nonzero;"/>
                        </g>
                        <g id="stripes">
                            <path d="M17.51,28.8C17.51,28.8 31.51,41.07 37.17,43.8C42.83,46.53 48.17,48.47 51.98,48.62C54.456,48.697 56.934,48.573 59.39,48.25C59.394,49.482 59.6,50.705 60,51.87C60.825,54.022 61.53,56.219 62.11,58.45C62.28,59.37 62.58,61.99 62.58,61.99C62.58,61.99 42.74,58.45 38.44,56.31C34.62,54.43 23.76,42.73 22,40C20.24,37.27 16.33,31.34 16.33,31.34L17.51,28.8Z" style="fill:rgb(0,130,30);fill-rule:nonzero;"/>
                            <path d="M18.29,27C18.29,27 30.52,36.72 36,39.54C41.23,42.22 44.68,43.82 48.68,44.22C52.68,44.62 59,45.39 59,45.39L59.29,47.64C59.29,47.64 50.13,47.25 45.4,46C40.67,44.75 25,34.23 22.17,32C20.683,30.816 19.109,29.746 17.46,28.8L18.29,27Z" style="fill:rgb(0,130,30);fill-rule:nonzero;"/>
                            <path d="M15.88,32.29C17.939,36.42 20.517,40.272 23.55,43.75C28.83,49.91 34.79,55.57 36.66,56.31C38.53,57.05 42.28,59.31 46.53,60.37C49.503,61.15 52.532,61.695 55.59,62C58.83,62.35 60.21,62.67 61.47,62.67L62.61,62.67L62.53,66.26C62.53,66.26 47.53,65.12 42.79,62.67C38.05,60.22 30.36,55.36 28.06,52.67C25.76,49.98 22.61,46.05 21,43.75C19.39,41.45 16.59,35.75 15.88,34.75C15.17,33.75 15.31,33.46 15.31,33.46L15.88,32.29Z" style="fill:rgb(0,130,30);fill-rule:nonzero;"/>
                        </g>
                        <g transform="matrix(0.898871,-0.438214,0.438214,0.898871,-19.49,9.04)">
                            <g id="aehand1">
                                <ellipse cx="9.84" cy="46.74" rx="10.3" ry="7.55" style="fill:rgb(0,130,30);"/>
                            </g>
                        </g>
                    </g>
                    <g id="ae1_2_buttshadow">
                        <path d="M3.77,65.33C3.77,65.33 3.69,70.82 5.29,74.33C6.397,76.843 7.666,79.282 9.09,81.63C10.36,83.27 11.722,84.836 13.17,86.32C13.843,86.972 14.554,87.583 15.3,88.15C17.091,89.607 19.064,90.824 21.17,91.77C23.084,92.382 25.03,92.886 27,93.28C28.97,93.674 31.51,94.28 31.77,94.18C32.03,94.08 36.18,94.12 36.43,93.95C36.68,93.78 44.26,88.43 44.26,88.43L35.89,89.58L31.89,89.58C30.223,89.402 28.583,89.033 27,88.48C24.58,87.65 19.66,85.74 17.46,83.96C15.11,82.06 10.86,78.16 9.84,76.48C7.33,72.37 3.77,65.33 3.77,65.33Z" style="fill:rgb(0,130,30);fill-rule:nonzero;"/>
                    </g>
                    <g id="aeLegShadow">
                        <path d="M14.49,87.46C14.49,87.46 13.8,87.57 14.27,91.35C14.48,92.435 14.607,93.535 14.65,94.64C14.847,95.661 15.222,96.64 15.76,97.53C16.533,98.472 17.431,99.303 18.43,100C18.985,100.23 19.557,100.417 20.14,100.56C20.829,100.536 21.514,100.455 22.19,100.32C22.83,100.15 22.19,100.43 21.51,99.45C21.014,98.907 20.618,98.281 20.34,97.6C19.682,96.433 19.149,95.199 18.75,93.92C18.83,92.767 19.007,91.623 19.28,90.5L14.49,87.46Z" style="fill:rgb(0,130,30);fill-rule:nonzero;"/>
                    </g>
                    <g id="aeEye" transform="matrix(1,0,0,1,-2.64329,6.26263)">
                        <circle cx="42.39" cy="11.48" r="2.2" style="fill:rgb(0,130,30);"/>
                    </g>
                </g>
                <g transform="matrix(0.993623,-0.048072,0.0262725,0.994677,-30.4648,224.293)">
                    <g transform="matrix(0.611153,0,0.0054966,0.0397324,1402.3,1561.43)">
                        <rect x="3016.36" y="1407.03" width="242.779" height="182.528" style="fill:rgb(0,130,30);"/>
                    </g>
                    <g transform="matrix(1.03081,0,0.131936,0.953703,-305.504,108.62)">
                        <rect x="3016.36" y="1407.03" width="242.779" height="182.528" style="fill:rgb(0,130,30);"/>
                    </g>
                </g>
            </g>
            <g>
                <g id="Anteater11" serif:id="Anteater1" transform="matrix(-3.46625,-0.736774,-0.736774,3.46625,3498.67,1459.5)">
                    <g id="AE11" serif:id="AE1">
                        <g id="aebody11" serif:id="aebody1">
                            <path d="M83.308,32.059C83.056,32.69 82.619,33.231 82.055,33.61C81.473,33.927 80.849,34.162 80.202,34.308L78.944,33.994C77.442,33.602 75.91,33.34 74.364,33.209C72.836,32.911 71.267,32.88 69.729,33.118C68.992,33.175 67.872,33.337 66.748,33.553C65.625,33.769 64.528,33.976 63.851,34.162L59.881,34.766C52.881,36.604 59.25,24.04 58.23,31.34C57.23,38.4 59.49,51.73 59.65,52.65C65.001,64.336 62.066,78.242 52.45,86.77C42.834,95.298 52.96,93.24 52.45,96.13C51.94,99.02 48.36,100.13 48.36,100.13C45.478,100.65 42.506,99.922 40.19,98.13C38.649,97.034 37.355,95.627 36.39,94C35.004,94.171 33.606,94.231 32.21,94.18C31.225,95.743 29.949,97.101 28.45,98.18C25.51,100.1 24.36,99.72 22.19,100.39C20.02,101.06 18.36,100.48 16.45,98.44C14.54,96.4 14.66,94.74 14.27,91.44C14.131,90.14 14.205,88.826 14.49,87.55C4.668,79.546 1.124,66.022 5.76,54.23L5.76,54.11C6,53.76 6.5,52.62 7.26,51C10,45 15.79,32.59 18.06,27.77C19.26,25.22 20.501,16.098 22.284,14.435C24.851,12.039 25.049,11.857 25.229,11.666C26.048,10.774 26.999,10.014 28.049,9.412C28.99,8.963 29.977,8.618 30.992,8.383L32.311,7.806C31.673,6.198 31.858,4.377 32.805,2.931C34.073,1.598 35.646,0.593 37.389,0.003C38.519,-0.043 40.714,0.398 41.495,1.338C42.56,2.807 43.302,4.485 43.672,6.261C44.622,6.283 45.565,6.433 46.475,6.705C48.687,7.365 52.47,8.589 57.296,10.412C59.448,11.243 61.412,11.795 63.078,12.46C70.603,15.453 73.043,17.952 73.043,17.952L80.478,24.051C80.481,24.053 80.484,24.054 80.487,24.056C83.456,25.477 84.729,29.09 83.308,32.059C83.308,32.059 83.308,32.059 83.308,32.059Z" style="fill:rgb(167,169,172);fill-rule:nonzero;"/>
                        </g>
                        <g id="stripes1" serif:id="stripes">
                            <path d="M17.51,28.8C17.51,28.8 31.51,41.07 37.17,43.8C42.83,46.53 48.17,48.47 51.98,48.62C54.456,48.697 56.934,48.573 59.39,48.25C59.394,49.482 59.6,50.705 60,51.87C60.825,54.022 61.53,56.219 62.11,58.45C62.28,59.37 62.58,61.99 62.58,61.99C62.58,61.99 42.74,58.45 38.44,56.31C34.62,54.43 23.76,42.73 22,40C20.24,37.27 16.33,31.34 16.33,31.34L17.51,28.8Z" style="fill:rgb(35,31,32);fill-rule:nonzero;"/>
                            <path d="M18.29,27C18.29,27 30.52,36.72 36,39.54C41.23,42.22 44.68,43.82 48.68,44.22C52.68,44.62 59,45.39 59,45.39L59.29,47.64C59.29,47.64 50.13,47.25 45.4,46C40.67,44.75 25,34.23 22.17,32C20.683,30.816 19.109,29.746 17.46,28.8L18.29,27Z" style="fill:white;fill-rule:nonzero;"/>
                            <path d="M15.88,32.29C17.939,36.42 20.517,40.272 23.55,43.75C28.83,49.91 34.79,55.57 36.66,56.31C38.53,57.05 42.28,59.31 46.53,60.37C49.503,61.15 52.532,61.695 55.59,62C58.83,62.35 60.21,62.67 61.47,62.67L62.61,62.67L62.53,66.26C62.53,66.26 47.53,65.12 42.79,62.67C38.05,60.22 30.36,55.36 28.06,52.67C25.76,49.98 22.61,46.05 21,43.75C19.39,41.45 16.59,35.75 15.88,34.75C15.17,33.75 15.31,33.46 15.31,33.46L15.88,32.29Z" style="fill:white;fill-rule:nonzero;"/>
                        </g>
                        <g transform="matrix(0.898871,-0.438214,0.438214,0.898871,-19.49,9.04)">
                            <g id="aehand11" serif:id="aehand1">
                                <ellipse cx="9.84" cy="46.74" rx="10.3" ry="7.55" style="fill:rgb(188,190,192);"/>
                            </g>
                        </g>
                    </g>
                    <g id="ae1_2_buttshadow1" serif:id="ae1_2_buttshadow">
                        <path d="M3.77,65.33C3.77,65.33 3.69,70.82 5.29,74.33C6.397,76.843 7.666,79.282 9.09,81.63C10.36,83.27 11.722,84.836 13.17,86.32C13.843,86.972 14.554,87.583 15.3,88.15C17.091,89.607 19.064,90.824 21.17,91.77C23.084,92.382 25.03,92.886 27,93.28C28.97,93.674 31.51,94.28 31.77,94.18C32.03,94.08 36.18,94.12 36.43,93.95C36.68,93.78 44.26,88.43 44.26,88.43L35.89,89.58L31.89,89.58C30.223,89.402 28.583,89.033 27,88.48C24.58,87.65 19.66,85.74 17.46,83.96C15.11,82.06 10.86,78.16 9.84,76.48C7.33,72.37 3.77,65.33 3.77,65.33Z" style="fill:rgb(147,149,152);fill-rule:nonzero;"/>
                    </g>
                    <g id="aeLegShadow1" serif:id="aeLegShadow">
                        <path d="M14.49,87.46C14.49,87.46 13.8,87.57 14.27,91.35C14.48,92.435 14.607,93.535 14.65,94.64C14.847,95.661 15.222,96.64 15.76,97.53C16.533,98.472 17.431,99.303 18.43,100C18.985,100.23 19.557,100.417 20.14,100.56C20.829,100.536 21.514,100.455 22.19,100.32C22.83,100.15 22.19,100.43 21.51,99.45C21.014,98.907 20.618,98.281 20.34,97.6C19.682,96.433 19.149,95.199 18.75,93.92C18.83,92.767 19.007,91.623 19.28,90.5L14.49,87.46Z" style="fill:rgb(147,149,152);fill-rule:nonzero;"/>
                    </g>
                    <g id="aeEye1" serif:id="aeEye" transform="matrix(1,0,0,1,-2.64329,6.26263)">
                        <circle cx="42.39" cy="11.48" r="2.2" style="fill:rgb(35,31,32);"/>
                    </g>
                </g>
                <g transform="matrix(0.993623,-0.048072,0.0262725,0.994677,-30.4648,224.293)">
                    <g transform="matrix(0.597423,-0.11635,0.012941,0.0381253,1441.16,1914.94)">
                        <rect x="3016.36" y="1407.03" width="242.779" height="182.528" style="fill:rgb(94,83,65);"/>
                    </g>
                    <g transform="matrix(1.03081,0,0.131936,0.953703,-305.504,108.62)">
                        <rect x="3016.36" y="1407.03" width="242.779" height="182.528" style="fill:rgb(94,83,65);"/>
                    </g>
                    <g transform="matrix(0.274218,-0.000144332,0.0378887,0.274205,3034.73,1493.43)">
                        <path id="px4Vka39o" d="M26,245.6C26,245.4 38.5,213.8 53.9,175.3C69.2,136.9 84.5,98.4 87.9,89.8L94.2,74L105.7,74C116.2,74 117.2,74.1 116.6,75.8C116.2,76.7 100.8,115.4 82.3,161.8L48.8,246L37.4,246C31.1,246 26,245.8 26,245.6Z" style="fill:rgb(62,54,43);fill-rule:nonzero;"/>
                        <path id="pM4x3K3QA" d="M82,245.3C82,244.8 97.3,206.3 115.9,159.5L149.8,74.5L161.4,74.2L173.1,73.9L171.7,77.2C171,79 155.6,117.7 137.5,163.2L104.5,246L93.3,246C87.1,246 82,245.7 82,245.3Z" style="fill:rgb(62,54,43);fill-rule:nonzero;"/>
                        <path id="peEpkmn69" d="M189,246L189,74L214,74L214,246L189,246Z" style="fill:rgb(62,54,43);fill-rule:nonzero;"/>
                        <path id="pFNWP5AwA" d="M230.3,245.3C227,244.7 222.4,239.6 221.6,235.9C221.3,234.2 221,199.6 221.1,159.1C221.1,104.8 221.4,84.6 222.3,82.1C223,80.2 224.8,77.7 226.3,76.6C229,74.6 230.4,74.5 261.8,74.2C307.4,73.9 305,72 305,106.8L305,129L280,129L280,95L246,95L246,225L291.8,225L297.9,234.9C301.3,240.3 304,245 304,245.4C304,246.1 233.9,246 230.3,245.3Z" style="fill:rgb(62,54,43);fill-rule:nonzero;"/>
                        <path id="p10O7zfcod" d="M306.7,235.5L300.1,225L369,225L369,190.5L341.8,165C322.9,147.2 314.2,138.3 312.9,135.5C311.3,132 311,128.7 311,108.5C311,87.8 311.2,85.1 313,81.2C316.2,74.2 317.2,74 352.6,74C386.5,74 387.9,74.2 391.5,80.3C393.3,83.2 393.5,85.8 393.8,105.3L394.2,127L369,127L369,95L336,95L336,126.7L363,152.1C378.3,166.5 390.8,179 391.8,181C393.3,184.1 393.5,187.7 393.5,210C393.5,237.8 393.2,239.3 387.7,243.4C385,245.4 383.6,245.5 349.1,245.8L313.3,246.1L306.7,235.5Z" style="fill:rgb(62,54,43);fill-rule:nonzero;"/>
                        <path id="pDeo5WbVH" d="M413.5,246L400.1,225L457,225L457,190.2L429.9,164.4C413.1,148.5 402.2,137.4 401.4,135.3C400.3,132.9 400,126.1 400,107.8C400,85.5 400.2,83.2 402,80.3C405.8,73.9 405.2,74 455.2,74L500.5,74.1L507.3,85.1L514,96L514,225L559.5,225L565.5,234.7C568.8,240 571.7,244.8 571.8,245.2C572,245.6 555.9,246 536.1,246C496,246 494.7,245.8 491,239.8C489.1,236.6 489,234.9 489,165.8L489,95L425,95L425.1,111.3L425.2,127.5L452.2,152.9C469.2,168.9 479.8,179.6 480.6,181.7C481.7,184.1 482,191 482,210C482,237.4 481.6,240 476.4,243.5C473.7,245.4 471.4,245.5 443.5,245.8L413.5,246Z" style="fill:rgb(62,54,43);fill-rule:nonzero;"/>
                        <path id="pJ6tjuRD9" d="M548,129L548,95L522.5,95L509.1,74L535.6,74C566.3,74 567.9,74.3 571,81.2C572.7,85 573,87.9 573,107.3L573,129L548,129Z" style="fill:rgb(62,54,43);fill-rule:nonzero;"/>
                    </g>
                </g>
            </g>
        </g>
    </g>
    <defs>
        <linearGradient id="_Linear1" x1="0" y1="0" x2="1" y2="0" gradientUnits="userSpaceOnUse" gradientTransform="matrix(1.32262e-13,2160,-2160,1.32262e-13,1942.15,0)"><stop offset="0" style="stop-color:rgb(148,230,255);stop-opacity:1"/><stop offset="1" style="stop-color:rgb(174,236,255);stop-opacity:1"/></linearGradient>
    </defs>
</svg>
