<?xml version="1.0" encoding="UTF-8" standalone="no"?>
<!DOCTYPE svg PUBLIC "-//W3C//DTD SVG 1.1//EN" "http://www.w3.org/Graphics/SVG/1.1/DTD/svg11.dtd">
<svg width="100%" height="100%" viewBox="0 0 3840 2160" version="1.1" xmlns="http://www.w3.org/2000/svg" xmlns:xlink="http://www.w3.org/1999/xlink" xml:space="preserve" xmlns:serif="http://www.serif.com/" style="fill-rule:evenodd;clip-rule:evenodd;stroke-linecap:round;stroke-linejoin:round;stroke-miterlimit:1.5;">
    <rect id="Artboard1" x="0" y="0" width="3840" height="2160" style="fill:url(#_Linear1);"/>
    <clipPath id="_clip2">
        <rect id="Artboard11" serif:id="Artboard1" x="0" y="0" width="3840" height="2160"/>
    </clipPath>
    <g clip-path="url(#_clip2)">
        <g transform="matrix(3.94828,0,0,3.94828,-5726,-3920.92)">
            <path d="M2054.72,-308.461L2077.3,-306.981L1964.73,1410.52L2300.51,-277.594L2322.7,-273.18L1986.92,1414.93L2540.18,-214.909L2561.6,-207.636L2008.34,1422.2L2769.6,-121.478L2789.9,-111.471L2028.64,1432.21L2984.88,1.1L3003.69,13.67L2047.45,1444.78L3182.31,150.728L3199.32,165.646L2064.46,1459.7L3358.51,324.845L3373.43,341.856L2079.38,1476.71L3510.49,520.473L3523.06,539.286L2091.95,1495.53L3635.63,734.264L3645.64,754.557L2101.96,1515.82L3731.8,962.561L3739.07,983.986L2109.23,1537.24L3797.34,1201.46L3801.76,1223.65L2113.64,1559.43L3831.14,1446.86L3832.62,1469.44L2115.12,1582.01L3832.62,1694.58L3831.14,1717.16L2113.64,1604.59L3801.76,1940.37L3797.34,1962.57L2109.23,1626.78L3739.07,2180.04L3731.8,2201.46L2101.96,1648.2L3645.64,2409.47L3635.63,2429.76L2091.95,1668.5L3523.06,2624.74L3510.49,2643.55L2079.38,1687.31L3373.43,2822.16L3358.51,2839.18L2064.46,1704.32L3199.32,2998.38L3182.31,3013.29L2047.45,1719.24L3003.69,3150.35L2984.88,3162.92L2028.64,1731.81L2789.9,3275.49L2769.6,3285.5L2008.34,1741.82L2561.6,3371.66L2540.18,3378.93L1986.92,1749.09L2322.7,3437.2L2300.51,3441.62L1964.73,1753.5L2077.3,3471L2054.72,3472.48L1942.15,1754.98L1829.58,3472.48L1807,3471L1919.57,1753.5L1583.79,3441.62L1561.6,3437.2L1897.38,1749.09L1344.12,3378.93L1322.7,3371.66L1875.96,1741.82L1114.7,3285.5L1094.4,3275.49L1855.66,1731.81L899.426,3162.92L880.613,3150.35L1836.85,1719.24L701.996,3013.29L684.985,2998.38L1819.84,1704.32L525.786,2839.18L510.868,2822.16L1804.92,1687.31L373.81,2643.55L361.24,2624.74L1792.35,1668.5L248.669,2429.76L238.662,2409.47L1782.35,1648.2L152.504,2201.46L145.231,2180.04L1775.07,1626.78L86.96,1962.57L82.546,1940.37L1770.66,1604.59L53.159,1717.16L51.679,1694.58L1769.18,1582.01L51.679,1469.44L53.159,1446.86L1770.66,1559.43L82.546,1223.65L86.96,1201.46L1775.07,1537.24L145.231,983.986L152.504,962.561L1782.35,1515.82L238.662,754.557L248.669,734.264L1792.35,1495.53L361.24,539.286L373.81,520.473L1804.92,1476.71L510.868,341.856L525.786,324.845L1819.84,1459.7L684.985,165.646L701.996,150.728L1836.85,1444.78L880.613,13.67L899.426,1.1L1855.66,1432.21L1094.4,-111.471L1114.7,-121.478L1875.96,1422.2L1322.7,-207.636L1344.12,-214.909L1897.38,1414.93L1561.6,-273.18L1583.79,-277.594L1919.57,1410.52L1807,-306.981L1829.58,-308.461L1942.15,1409.04L2054.72,-308.461Z" style="fill:white;fill-opacity:0.1;"/>
        </g>
        <g id="Hills">
            <g transform="matrix(2.38228,0,0,2.6108,-1646.98,-767.59)">
                <ellipse cx="915.5" cy="1497" rx="1004.5" ry="720" style="fill:rgb(0,131,47);"/>
                <clipPath id="_clip3">
                    <ellipse cx="915.5" cy="1497" rx="1004.5" ry="720"/>
                </clipPath>
                <g clip-path="url(#_clip3)">
                    <g transform="matrix(0.498582,0,0,0.383025,552.045,294.006)">
                        <path d="M1668.91,2004.73C483.807,1843.25 363.096,1427.09 1422.58,1336.27L1471.08,1268.42C196.522,1377.67 341.737,1878.32 1767.42,2072.58L1668.91,2004.73Z" style="fill:rgb(255,241,151);fill-opacity:0.9;"/>
                    </g>
                </g>
            </g>
            <g transform="matrix(2.38228,0,0,2.6108,1533.02,-948.59)">
                <ellipse cx="915.5" cy="1497" rx="1004.5" ry="720" style="fill:rgb(0,190,47);"/>
                <clipPath id="_clip4">
                    <ellipse cx="915.5" cy="1497" rx="1004.5" ry="720"/>
                </clipPath>
                <g clip-path="url(#_clip4)">
                    <g transform="matrix(0.415144,0,0,0.467858,-614.231,195.983)">
                        <path d="M2706.03,2240.48C2715.82,2231.68 2692.15,2217.82 2682.85,2208.51C2609.14,2134.8 2513.95,2052.96 2405.77,2036.95C2226.02,2010.34 1861.48,2029.64 1774.7,1856.12C1773.07,1852.85 1763.62,1838.27 1760.41,1838.27L1836.64,1757.2C1839.85,1757.2 1849.3,1771.78 1850.93,1775.05C1937.71,1948.57 2302.25,1929.27 2482,1955.88C2590.18,1971.89 2685.37,2053.73 2759.08,2127.44C2768.38,2136.74 2792.05,2150.61 2782.26,2159.41C2777.47,2163.72 2701.24,2244.79 2706.03,2240.48Z" style="fill:rgb(255,241,151);"/>
                    </g>
                </g>
            </g>
        </g>
        <g id="Plane" transform="matrix(1,0,0,1,292.573,33.9451)">
            <g transform="matrix(-0.807715,0,0,0.807715,1056.62,274.284)">
                <path d="M407.55,242.19C407.55,243.08 407.4,243.65 407.09,244.13C406.79,244.62 406.33,245.01 405.72,245.56C405.72,245.56 404.45,245.81 404.45,245.82C404.27,245.86 402.56,246.14 399.98,247.09C397.93,247.83 397.16,247.98 395.76,249.01C395.12,249.38 394.18,250.02 393.26,250.69C392.34,251.35 391.44,252.03 390.91,252.49C390.9,252.49 390.08,253.06 389.25,253.62C388.42,254.18 387.6,254.75 387.59,254.75C382.07,259.43 382.91,256.38 381.89,263.68C380.91,270.74 383.15,284.07 383.31,284.99L383.31,285.01C385.02,288.73 385.97,292.86 385.97,297.22C385.97,305.94 382.16,313.77 376.11,319.13C376.11,319.13 376.62,325.6 376.11,328.49C375.59,331.38 372.02,332.5 372.02,332.5C372.02,332.5 367.93,333.52 363.85,330.45C361.83,328.94 360.69,327.43 360.05,326.29C358.68,326.46 357.29,326.52 355.87,326.47C354.99,327.78 353.68,329.43 352.11,330.45C349.17,332.37 348.02,331.99 345.85,332.66C343.68,333.33 342.02,332.75 340.11,330.71C338.19,328.67 338.32,327.01 337.93,323.69C337.76,322.23 337.92,320.87 338.15,319.8C331.76,314.52 327.61,306.6 327.43,297.84C327.35,293.86 328.06,290.05 329.42,286.57L329.48,286.45C329.64,286.1 330.16,284.96 330.92,283.34C330.92,283.33 330.92,283.33 330.93,283.32C333.68,277.38 339.45,264.93 341.72,260.11C342.92,257.56 344.01,254.92 344.9,252.65C346.18,249.38 346.28,249.13 346.36,248.88C346.37,248.87 346.99,246.79 347.93,245.63C348.58,244.82 349.33,244.08 350.14,243.43L351.08,242.38C350.18,241.47 349.07,239.86 349.42,237.77C349.68,236.24 351.78,233.37 352.29,233.11C353.33,232.58 355.46,232.03 356.57,232.54C358.16,233.26 359.69,234.9 360.62,236.04C361.48,235.65 362.4,235.38 363.34,235.23C365.63,234.87 369.6,234.32 374.74,233.9C377.04,233.72 379.05,233.37 380.84,233.25C388.92,232.7 392.2,233.9 392.2,233.9L392.21,233.9L401.55,236.19C404.86,236.19 407.55,238.88 407.55,242.19Z" style="fill:rgb(167,169,172);fill-rule:nonzero;"/>
                <path d="M341.17,261.13C341.17,261.13 355.21,273.4 360.83,276.08C366.45,278.75 371.81,280.76 375.64,280.9C379.47,281.04 383.05,280.53 383.05,280.53C383.05,280.53 383.03,282.82 383.61,284.2C384.2,285.59 385.56,289.86 385.72,290.78C385.89,291.7 386.19,294.31 386.19,294.31C386.19,294.31 366.35,290.78 362.05,288.63C358.28,286.75 347.43,275.05 345.64,272.35C343.85,269.65 339.97,263.69 339.97,263.69L341.17,261.13Z" style="fill:rgb(35,31,32);fill-rule:nonzero;"/>
                <path d="M341.95,259.31C341.95,259.31 354.18,269.05 359.68,271.87C364.91,274.55 368.36,276.15 372.36,276.55C376.43,276.96 382.68,277.72 382.68,277.72L382.97,279.97C382.97,279.97 373.79,279.58 369.06,278.29C364.43,277.02 348.68,266.57 345.83,264.32C343.15,262.21 341.13,261.12 341.13,261.12L341.95,259.31Z" style="fill:white;fill-rule:nonzero;"/>
                <path d="M339.54,264.62C339.54,264.62 341.93,269.91 347.21,276.08C352.49,282.24 358.44,287.9 360.32,288.65C362.19,289.4 365.94,291.69 370.19,292.71C374.45,293.73 376.02,293.97 379.25,294.32C382.48,294.68 383.87,295 385.12,294.99C386.37,294.98 386.26,294.99 386.26,294.99L386.18,298.59C386.18,298.59 371.2,297.45 366.44,294.99C361.67,292.54 354.01,287.69 351.72,284.96C349.42,282.24 346.26,278.38 344.66,276.08C343.05,273.78 340.26,268.11 339.54,267.13C338.82,266.15 338.97,265.84 338.97,265.84L339.54,264.62Z" style="fill:white;fill-rule:nonzero;"/>
                <path d="M336.803,285.94C341.917,283.448 344.581,278.388 342.754,274.64C340.926,270.892 335.3,269.874 330.186,272.367C325.073,274.86 322.409,279.919 324.236,283.667C326.063,287.415 331.69,288.433 336.803,285.94Z" style="fill:rgb(188,190,192);fill-rule:nonzero;"/>
                <path d="M327.429,297.66C327.429,297.66 327.349,303.15 328.949,306.64C330.059,309.07 331.929,312.83 332.749,313.95C333.569,315.07 336.079,317.96 336.839,318.64C337.599,319.32 337.589,319.4 338.969,320.47C340.329,321.53 342.759,323.27 344.839,324.09C346.579,324.77 350.629,325.62 350.629,325.62C350.629,325.62 355.139,326.6 355.399,326.51C355.659,326.42 359.809,326.46 360.069,326.29C360.329,326.12 367.889,320.77 367.889,320.77L359.529,321.92C359.529,321.92 356.549,321.97 355.529,321.88C354.129,321.75 352.419,321.41 350.679,320.82C348.259,320 343.339,318.09 341.139,316.31C338.789,314.4 334.539,310.5 333.509,308.82C330.989,304.7 327.429,297.66 327.429,297.66Z" style="fill:rgb(147,149,152);fill-rule:nonzero;"/>
                <path d="M338.15,319.8C338.15,319.8 337.46,319.91 337.93,323.69C338.4,327.47 338.31,326.98 338.31,326.98C338.31,326.98 338.73,329.03 339.42,329.87C340.11,330.71 341.509,332.06 342.089,332.34C342.669,332.62 343.8,332.9 343.8,332.9C343.8,332.9 345.219,332.83 345.849,332.66C346.479,332.49 345.89,332.77 345.17,331.79C344.45,330.81 344.49,331.02 344,329.94C343.51,328.86 342.47,327.05 342.4,326.26C342.33,325.47 342.93,322.83 342.93,322.83L338.15,319.8Z" style="fill:rgb(147,149,152);fill-rule:nonzero;"/>
                <path d="M366.05,246.02C367.265,246.02 368.25,245.035 368.25,243.82C368.25,242.605 367.265,241.62 366.05,241.62C364.835,241.62 363.85,242.605 363.85,243.82C363.85,245.035 364.835,246.02 366.05,246.02Z" style="fill:rgb(35,31,32);fill-rule:nonzero;"/>
            </g>
            <g>
                <path d="M949.551,510.878L1019.82,510.878L1084.58,446.119L1084.58,554.902L1019.82,510.878" style="fill:none;stroke:rgb(102,102,102);stroke-width:6px;"/>
                <g>
                    <g transform="matrix(0.945519,0,0,1.05354,30.3405,-26.0213)">
                        <ellipse cx="563.578" cy="481.418" rx="4.86" ry="27.824" style="fill:rgb(86,90,91);"/>
                    </g>
                    <g transform="matrix(0.945519,0,0,1.05354,30.3405,44.6516)">
                        <ellipse cx="563.578" cy="481.418" rx="4.86" ry="27.824" style="fill:rgb(86,90,91);"/>
                    </g>
                    <path d="M559.342,506.43L582.236,506.43L582.236,528.717L559.342,528.717C552.286,528.717 546.558,523.723 546.558,517.573C546.558,511.423 552.286,506.43 559.342,506.43Z" style="fill:rgb(64,63,68);"/>
                </g>
                <path d="M579,480L615.066,481.283L612.888,552.711L583,552.553C578.892,553.596 576.005,549.023 576,543L571.194,489C571.229,483.671 573.348,480.233 579,480Z" style="fill:rgb(60,37,21);"/>
                <path d="M860,490C882.457,483.82 895.472,471.757 902.027,455.669C919.19,411.303 955.951,441.273 956.833,467.595C957.354,483.125 957.689,498.495 948.82,512.758L860,490Z" style="fill:rgb(255,49,49);"/>
                <path d="M612.888,552.711L615.066,481.283L735.228,485.56C752.751,500.359 771.571,501.566 791.773,487.572L860,490C882.717,489.425 902.689,492.655 919.722,497.867C951.785,505.308 964.524,512.97 923.438,525.032C876.081,543.585 825.459,552.678 772,553.553L612.888,552.711Z" style="fill:rgb(255,101,101);"/>
                <g>
                    <g transform="matrix(1.07918,0,0.158184,0.998736,-123.459,0.66831)">
                        <rect x="645.741" y="455.577" width="6.999" height="73.178" style="fill:rgb(141,150,159);"/>
                    </g>
                    <g transform="matrix(1.07918,0,0.165756,1.04654,-86.7053,-21.1116)">
                        <rect x="645.741" y="455.577" width="6.999" height="73.178" style="fill:rgb(141,150,159);"/>
                    </g>
                </g>
                <g>
                    <path d="M640.23,443.928L668.284,443.78C691.134,444.062 713.064,448.364 727.692,454.701C729.31,455.403 729.195,456.747 727.574,456.72C688.178,456.059 638.627,456.901 629.246,453.695C619.06,450.806 620.187,448.262 632.436,444.895L640.23,443.928Z" style="fill:rgb(255,49,49);"/>
                    <g transform="matrix(1,0,0,1,10.0827,84.9749)">
                        <path d="M640.23,443.928L668.284,443.78C691.134,444.062 713.064,448.364 727.692,454.701C729.31,455.403 729.195,456.747 727.574,456.72C688.178,456.059 638.627,456.901 629.246,453.695C619.06,450.806 620.187,448.262 632.436,444.895L640.23,443.928Z" style="fill:rgb(255,53,53);"/>
                    </g>
                </g>
            </g>
            <g transform="matrix(1,0,0,1,-311,8)">
                <g transform="matrix(1,0,0,0.485844,353.114,153.828)">
                    <path d="M2710.17,1028.67C2714.55,1033.05 2671.73,1052.54 2666.4,1054.84C2498.52,1127.37 2351.74,1150.78 2168.36,1137.68C1804.47,1111.69 1362.42,925.74 1039.29,1176.49L1039.29,211.721C1362.42,-39.025 1804.47,146.929 2168.36,172.92C2351.74,186.018 2445.96,193.079 2613.84,120.553C2619.17,118.25 2661.99,98.765 2657.61,94.383L2710.17,1028.67Z" style="fill:rgb(255,122,122);"/>
                </g>
                <g transform="matrix(1,0,0,0.485844,353.114,13.5995)">
                    <path d="M1279.58,732.674L1332.27,1054.77L1342.1,1052.83L1367.21,690.897L1358.85,692.544L1336.54,1034.52L1283.12,707.462L1273.77,709.303L1252.13,1049.62L1198.54,724.124L1189.68,725.868L1248.18,1071.34L1258.01,1069.4L1279.58,732.674Z" style="fill:rgb(242,242,242);fill-rule:nonzero;"/>
                    <path d="M1420.37,1046.94L1506.58,1047.03L1506.58,1032.28L1428.28,1032.21L1428.32,867.487L1496,867.552L1496,853.317L1428.32,853.252L1428.36,706.326L1505.91,706.401L1505.92,691.658L1420.45,691.575L1420.37,1046.94Z" style="fill:rgb(242,242,242);fill-rule:nonzero;"/>
                    <path d="M1554.22,691.632L1545.94,1050.66L1594.3,1055.38C1637.72,1059.63 1645.69,1025.29 1647.14,962.316C1648.19,916.612 1641.59,881.357 1620.13,868.064C1640.35,859.86 1646.25,829.389 1647.22,787.24C1648.34,738.489 1639.83,699.994 1602.82,696.379L1554.22,691.632ZM1561.78,707.13L1602.24,711.082C1630.61,713.853 1640.42,738.733 1639.31,786.976C1638.12,838.774 1628.18,862.234 1602.78,859.244L1558.38,854.398L1561.78,707.13ZM1558.04,869.125L1602.45,873.463C1628.36,875.993 1640.54,905.177 1639.25,961.037C1637.81,1023.5 1628.43,1044.47 1594.63,1041.17L1554.16,1037.21L1558.04,869.125Z" style="fill:rgb(242,242,242);fill-rule:nonzero;"/>
                    <path d="M1724.2,940.924L1731.85,715.237L1723.97,714.105L1716.32,939.792C1713.31,1028.55 1707.81,1052.22 1677.75,1047.9L1667.89,1046.49L1667.36,1062.21L1677.21,1063.62C1714.67,1069 1720.87,1039.31 1724.2,940.924Z" style="fill:rgb(242,242,242);fill-rule:nonzero;"/>
                    <path d="M1747.38,1073.86L1756,1075.34L1776.52,972.745L1846.91,984.831L1858.89,1093L1867.5,1094.48L1826.23,730.791L1817.37,729.27L1747.38,1073.86ZM1779.33,958.433L1820.97,750.296L1845.29,969.758L1779.33,958.433Z" style="fill:rgb(242,242,242);fill-rule:nonzero;"/>
                    <path d="M1903.48,1101.36L1911.12,1102.62L1923.85,763.009L1967.74,1111.97L1975.87,1113.31L2047.39,784.933L2033.73,1122.87L2041.36,1124.12L2055.41,769.936L2042.36,767.782L1972.7,1092.9L1930.09,749.248L1917.29,747.135L1903.48,1101.36Z" style="fill:rgb(242,242,242);fill-rule:nonzero;"/>
                    <path d="M2138.83,1134.4L2225.73,1139.78L2225.95,1124.53L2147.19,1120.17C2156.62,1100.4 2176.77,1057.4 2187,1033.62C2208.79,980.038 2226.78,932.324 2227.71,868.803C2228.51,813.921 2214.92,780.02 2187.03,778.293C2161.1,776.689 2144.06,809.713 2143.14,872.725L2151.04,873.214C2151.86,817.316 2166.56,792.286 2186.8,793.538C2208.78,794.898 2220.26,820.532 2219.55,869.315C2218.7,927.246 2202.21,973.527 2180.2,1025.57C2158.44,1077.12 2139.12,1114.58 2139.12,1114.58L2138.83,1134.4Z" style="fill:rgb(242,242,242);fill-rule:nonzero;"/>
                    <path d="M2360.38,960.194C2358.92,830.08 2346.97,777.761 2308.7,779.581C2270.42,781.401 2259.66,834.8 2261.12,964.914C2262.58,1095.54 2274.52,1146.84 2312.8,1145.02C2351.07,1143.2 2361.85,1090.82 2360.38,960.194ZM2269.02,964.538C2267.6,838.49 2278.5,796.273 2308.87,794.829C2339.24,793.385 2351.07,834.522 2352.48,960.57C2353.9,1087.13 2343,1128.33 2312.63,1129.77C2282.25,1131.21 2270.44,1091.09 2269.02,964.538Z" style="fill:rgb(242,242,242);fill-rule:nonzero;"/>
                    <path d="M2395.39,1132.05L2481.99,1116.25L2481.34,1101.06L2402.88,1115.89C2411.11,1093.97 2428.64,1046.36 2437.44,1020.26C2456,961.752 2471.12,909.994 2468.4,846.693C2466.04,792.001 2450.6,761.644 2422.8,766.718C2396.97,771.432 2381.94,808.369 2384.65,871.164L2392.52,869.727C2390.12,814.022 2403.28,785.591 2423.45,781.91C2445.35,777.914 2458.23,800.573 2460.32,849.188C2462.81,906.918 2449.09,956.887 2430.22,1013.92C2411.58,1070.4 2394.54,1112.3 2394.54,1112.3L2395.39,1132.05Z" style="fill:rgb(242,242,242);fill-rule:nonzero;"/>
                    <path d="M2535.2,1102.77L2542.78,1100.62L2519.16,746.544L2513.04,748.273L2487.22,790.979L2488.36,808.104L2512.85,767.827L2535.2,1102.77Z" style="fill:rgb(242,242,242);fill-rule:nonzero;"/>
                </g>
                <g transform="matrix(1,0,0,0.485844,353.114,-208.895)">
                    <path d="M1477.32,1047.08L1481.35,1047.14L1481.68,954.538L1477.65,954.478L1477.32,1047.08Z" style="fill:rgb(242,242,242);fill-rule:nonzero;"/>
                    <path d="M1520.94,1018.46L1517.03,1018.31C1516.56,1035.29 1513.49,1042.82 1507.35,1042.59C1499.54,1042.3 1496.75,1031.52 1497.02,1001.23C1497.29,970.933 1500.26,960.241 1508.07,960.533C1514.34,960.768 1517.28,968.519 1517.38,986.573L1521.35,986.721C1521.42,964.063 1517.35,953.502 1508.14,953.158C1497.13,952.746 1493.16,966.826 1492.86,1001.07C1492.56,1035.45 1496.27,1049.55 1507.28,1049.96C1516.37,1050.3 1520.55,1040.18 1520.94,1018.46Z" style="fill:rgb(242,242,242);fill-rule:nonzero;"/>
                    <path d="M1556.73,1028.17C1557.25,994.2 1534.41,1004.99 1534.83,977.998C1534.95,969.966 1536.87,961.523 1543.97,962.111C1551.83,962.749 1552.84,972.039 1552.68,982.836L1556.58,983.087C1556.84,965.97 1553.99,955.639 1544.01,954.866C1534.87,954.146 1531,964.177 1530.79,978.002C1530.22,1011.7 1553.11,1000.79 1552.7,1028.04C1552.55,1037.92 1549.94,1045.13 1543.04,1044.55C1535.87,1044.09 1533.44,1035.24 1533.65,1021.94L1529.68,1021.69C1529.39,1040.91 1533.52,1051.06 1542.8,1051.79C1552.14,1052.39 1556.5,1043.44 1556.73,1028.17Z" style="fill:rgb(242,242,242);fill-rule:nonzero;"/>
                    <path d="M1607.49,1032.71C1608.27,998.764 1585.36,1008.82 1585.97,981.843C1586.15,973.816 1588.14,965.436 1595.23,966.252C1603.09,967.143 1604.03,976.465 1603.79,987.255L1607.69,987.631C1608.08,970.525 1605.3,960.103 1595.33,959.009C1586.19,957.995 1582.25,967.901 1581.94,981.717C1581.11,1015.4 1604.08,1005.22 1603.46,1032.46C1603.24,1042.33 1600.58,1049.45 1593.67,1048.65C1586.52,1047.96 1584.16,1039.03 1584.46,1025.74L1580.5,1025.36C1580.06,1044.57 1584.12,1054.85 1593.38,1055.88C1602.72,1056.78 1607.14,1047.98 1607.49,1032.71Z" style="fill:rgb(242,242,242);fill-rule:nonzero;"/>
                    <path d="M1628.82,1057.65L1629.01,1050.42L1626.9,1050.18C1622.43,1049.68 1621.97,1042.64 1622.31,1029.75L1623.29,992.92L1630.31,993.706L1630.48,987.261L1623.45,986.475L1624.05,963.851L1620.11,965.125L1619.56,986.039L1615.79,985.617L1615.62,992.063L1619.39,992.484L1618.41,1029.58C1617.98,1045.62 1618.34,1056.48 1626.45,1057.39L1628.82,1057.65Z" style="fill:rgb(242,242,242);fill-rule:nonzero;"/>
                    <path d="M1657.02,1060.97L1660.41,1061.39L1660.47,1042L1661.97,991.117L1658.07,990.629L1656.67,1037.96C1655.69,1042.99 1652.86,1054.12 1647.18,1053.4C1642.39,1052.81 1641.19,1045.53 1641.57,1032.78L1642.87,988.727L1639.04,988.248L1637.67,1032.29C1637.08,1052.27 1639.55,1059.84 1645.81,1060.62C1652.39,1061.45 1655.62,1051.82 1656.72,1047.34L1657.02,1060.97Z" style="fill:rgb(242,242,242);fill-rule:nonzero;"/>
                    <path d="M1691.63,1065.68L1694.95,1066.14L1695.04,1047.8L1697.66,968.289L1693.83,967.755L1692.6,1005.21C1691.4,1000.43 1688.75,993.453 1683.58,992.732C1675.85,991.654 1672.48,1004.39 1671.7,1028.04C1670.93,1051.31 1673.52,1064.34 1681.44,1065.45C1687.38,1066.28 1690.09,1059.79 1691.34,1054.94L1691.63,1065.68ZM1682.43,1058.59C1677.07,1057.84 1675,1048.7 1675.66,1028.46C1676.33,1008.23 1679,999.092 1684.24,999.822C1689.16,1000.51 1691.33,1008.6 1692.31,1013.89L1691.2,1047.53C1689.81,1052.88 1687.16,1059.25 1682.43,1058.59Z" style="fill:rgb(242,242,242);fill-rule:nonzero;"/>
                    <path d="M1729.61,1050.34L1725.72,1049.75C1725.44,1055.65 1723.62,1065.28 1717.3,1064.33C1711.05,1063.38 1709.51,1054.3 1710.25,1033.67L1730.29,1036.7C1731.18,1011.88 1728.87,999.242 1719.68,997.85C1710.23,996.419 1707.07,1009.41 1706.24,1032.8C1705.4,1056.18 1707.62,1069.46 1717.07,1070.89C1727.03,1072.4 1729.28,1057.82 1729.61,1050.34ZM1719.45,1004.16C1724.82,1004.97 1726.73,1012.39 1726.49,1029.92L1710.54,1027.51C1711.46,1010.47 1713.77,1003.3 1719.45,1004.16Z" style="fill:rgb(242,242,242);fill-rule:nonzero;"/>
                    <path d="M1739.69,1072.93L1743.58,1073.56L1745.47,1023.78C1746.76,1018.7 1749.64,1010.32 1754.75,1011.14C1759.6,1011.92 1760.8,1019.11 1760.3,1032.25L1758.64,1075.98L1762.53,1076.61L1764.19,1032.87C1764.96,1012.65 1762.43,1004.97 1756.24,1003.98C1750.12,1002.99 1746.81,1010.65 1745.41,1015.32L1745.23,1003.26L1741.85,1002.72L1741.67,1020.92L1739.69,1072.93Z" style="fill:rgb(242,242,242);fill-rule:nonzero;"/>
                    <path d="M1785.59,1080.58L1785.87,1073.36L1783.77,1073.01C1779.3,1072.26 1778.94,1065.19 1779.44,1052.33L1780.89,1015.56L1787.91,1016.74L1788.16,1010.3L1781.15,1009.13L1782.04,986.546L1778.08,987.603L1777.25,1008.48L1773.49,1007.85L1773.24,1014.28L1777,1014.91L1775.54,1051.94C1774.91,1067.96 1775.12,1078.83 1783.23,1080.18L1785.59,1080.58Z" style="fill:rgb(242,242,242);fill-rule:nonzero;"/>
                    <path d="M1837.07,1059.28L1833.18,1058.61C1832.17,1075.49 1828.86,1082.58 1822.74,1081.52C1814.95,1080.17 1812.52,1069.04 1813.76,1038.85C1814.99,1008.66 1818.3,998.392 1826.08,999.741C1832.33,1000.83 1835.02,1008.96 1834.54,1026.99L1838.49,1027.67C1839.29,1005.07 1835.57,993.983 1826.38,992.391C1815.41,990.489 1811.01,1004 1809.61,1038.13C1808.21,1072.39 1811.47,1086.97 1822.43,1088.87C1831.49,1090.44 1835.99,1080.91 1837.07,1059.28Z" style="fill:rgb(242,242,242);fill-rule:nonzero;"/>
                    <path d="M1870.44,1059.99C1871.41,1036.76 1869.42,1022.79 1859.72,1021.09C1850.09,1019.53 1846.98,1032.47 1846.02,1055.7C1845.05,1079.06 1847.06,1092.5 1856.69,1094.2C1866.38,1095.9 1869.47,1083.35 1870.44,1059.99ZM1850.04,1056.4C1850.88,1035.93 1853.06,1026.79 1859.44,1027.91C1865.88,1029.05 1867.27,1038.81 1866.42,1059.29C1865.58,1079.76 1863.41,1088.63 1856.97,1087.5C1850.59,1086.38 1849.19,1076.88 1850.04,1056.4Z" style="fill:rgb(242,242,242);fill-rule:nonzero;"/>
                    <path d="M1899.08,1100.19L1902.46,1100.79L1902.75,1081.4L1904.86,1030.61L1900.97,1029.93L1899.01,1077.18C1897.97,1082.15 1895.01,1093.13 1889.33,1092.14C1884.55,1091.3 1883.44,1083.96 1883.97,1071.23L1885.79,1027.26L1881.96,1026.59L1880.08,1070.55C1879.25,1090.5 1881.63,1098.19 1887.88,1099.29C1894.45,1100.44 1897.79,1090.98 1898.94,1086.55L1899.08,1100.19Z" style="fill:rgb(242,242,242);fill-rule:nonzero;"/>
                    <path d="M1913.93,1102.79L1917.82,1103.47L1919.85,1053.72C1921.15,1048.65 1924.06,1040.3 1929.16,1041.18C1934.01,1042.02 1935.19,1049.23 1934.66,1062.36L1932.87,1106.07L1936.76,1106.74L1938.55,1063.03C1939.37,1042.82 1936.86,1035.11 1930.68,1034.04C1924.55,1032.98 1921.22,1040.6 1919.81,1045.25L1919.66,1033.19L1916.28,1032.61L1916.05,1050.81L1913.93,1102.79Z" style="fill:rgb(242,242,242);fill-rule:nonzero;"/>
                    <path d="M1971.19,1089.96L1967.36,1089.31C1966.86,1100.46 1964.2,1105.96 1959.1,1105.11C1952.91,1104.07 1951.41,1094.83 1952.23,1074.22C1953.04,1053.87 1955.27,1044.46 1961.46,1045.5C1966.69,1046.38 1968.72,1053.46 1968.27,1066.47L1972.1,1067.11C1972.61,1050.81 1970.21,1040.23 1961.72,1038.8C1952.28,1037.22 1949.13,1050.3 1948.21,1073.54C1947.29,1096.78 1949.39,1110.22 1958.83,1111.8C1967.12,1113.2 1970.5,1104.25 1971.19,1089.96Z" style="fill:rgb(242,242,242);fill-rule:nonzero;"/>
                    <path d="M1984.07,1031.27L1987.96,1031.9L1988.5,1017.72L1984.61,1017.09L1984.07,1031.27ZM1980.88,1114.13L1984.78,1114.77L1987.47,1044.64L1983.58,1044.01L1980.88,1114.13Z" style="fill:rgb(242,242,242);fill-rule:nonzero;"/>
                    <path d="M1996.9,1116.71L2000.79,1117.33L2004.45,1019.61L2000.56,1019L1996.9,1116.71Z" style="fill:rgb(242,242,242);fill-rule:nonzero;"/>
                    <path d="M2028.07,1121.56L2032.09,1122.14L2033.25,1088.1L2041.23,1089.25C2051.51,1090.74 2056.13,1084.93 2056.92,1061.94C2057.7,1039.07 2053.51,1032 2043.23,1030.52L2031.23,1028.78L2028.07,1121.56ZM2035.01,1036.33L2043.44,1037.54C2049.51,1038.42 2053.5,1041.63 2052.83,1061.35C2052.16,1081.06 2047.99,1083.1 2041.92,1082.22L2033.49,1081.01L2035.01,1036.33Z" style="fill:rgb(242,242,242);fill-rule:nonzero;"/>
                    <path d="M2064.56,1126.72L2068.45,1127.23L2069.84,1082.53C2070.67,1076.57 2073.32,1063.32 2079.96,1064.2L2080.19,1056.97C2073.8,1056.13 2070.95,1065.26 2069.82,1070.78L2069.61,1056.9L2066.22,1056.45L2066.12,1076.24L2064.56,1126.72Z" style="fill:rgb(242,242,242);fill-rule:nonzero;"/>
                    <path d="M2109.03,1111.26L2105.14,1110.8C2104.91,1116.71 2103.16,1126.4 2096.84,1125.65C2090.57,1124.91 2088.97,1115.88 2089.55,1095.23L2109.61,1097.61C2110.3,1072.75 2107.9,1060.2 2098.7,1059.11C2089.24,1057.99 2086.18,1071.08 2085.53,1094.49C2084.87,1117.9 2087.2,1131.11 2096.65,1132.23C2106.62,1133.41 2108.76,1118.75 2109.03,1111.26ZM2098.52,1065.42C2103.89,1066.06 2105.86,1073.41 2105.76,1090.95L2089.78,1089.06C2090.58,1072 2092.83,1064.75 2098.52,1065.42Z" style="fill:rgb(242,242,242);fill-rule:nonzero;"/>
                    <path d="M2140.7,1117.93C2141.31,1091.75 2122.44,1098.84 2122.87,1080.42C2123.04,1073.05 2125.08,1068.24 2130.38,1068.9C2135.37,1069.53 2137.29,1074.73 2137.05,1085.26L2140.82,1085.63C2141.16,1071.03 2137.95,1063.32 2130.47,1062.45C2122.86,1061.69 2119.18,1068.31 2118.97,1079.9C2118.45,1105.04 2137.33,1097.81 2136.8,1117.41C2136.55,1125.56 2134.27,1129.82 2128.97,1129.16C2124.36,1128.7 2121.27,1124.17 2121.56,1111.54L2117.73,1111.16C2117.35,1127.35 2121.46,1134.88 2128.88,1135.75C2137.12,1136.7 2140.43,1129.64 2140.7,1117.93Z" style="fill:rgb(242,242,242);fill-rule:nonzero;"/>
                    <path d="M2173.53,1117.14L2169.63,1116.84C2169.45,1122.76 2167.8,1132.52 2161.47,1132.03C2155.21,1131.55 2153.51,1122.59 2153.89,1101.92L2173.97,1103.47C2174.42,1078.59 2171.89,1066.13 2162.68,1065.43C2153.22,1064.7 2150.29,1077.92 2149.86,1101.35C2149.44,1124.78 2151.89,1137.89 2161.35,1138.62C2171.33,1139.38 2173.33,1124.64 2173.53,1117.14ZM2162.57,1071.74C2167.94,1072.16 2169.98,1079.43 2170.05,1096.97L2154.06,1095.74C2154.69,1078.65 2156.88,1071.31 2162.57,1071.74Z" style="fill:rgb(242,242,242);fill-rule:nonzero;"/>
                    <path d="M2183.9,1138.76L2187.8,1138.96L2188.42,1089.06C2189.58,1083.85 2192.25,1075.16 2197.36,1075.43C2202.23,1075.68 2203.61,1082.74 2203.45,1095.91L2202.9,1139.76L2206.8,1139.96L2207.35,1096.11C2207.6,1075.83 2204.88,1068.44 2198.67,1068.12C2192.53,1067.79 2189.42,1075.8 2188.14,1080.61L2187.65,1068.59L2184.26,1068.41L2184.55,1086.61L2183.9,1138.76Z" style="fill:rgb(242,242,242);fill-rule:nonzero;"/>
                    <path d="M2229.97,1140.88L2230.02,1133.64L2227.91,1133.57C2223.43,1133.43 2222.84,1126.43 2222.94,1113.52L2223.22,1076.64L2230.26,1076.86L2230.31,1070.41L2223.27,1070.18L2223.44,1047.53L2219.52,1049.12L2219.36,1070.06L2215.59,1069.94L2215.54,1076.39L2219.32,1076.51L2219.03,1113.66C2218.91,1129.73 2219.47,1140.55 2227.6,1140.81L2229.97,1140.88Z" style="fill:rgb(242,242,242);fill-rule:nonzero;"/>
                    <path d="M2259.9,1123.68C2259.96,1097.46 2241.25,1106.21 2241.3,1087.77C2241.32,1080.4 2243.25,1075.41 2248.56,1075.6C2253.56,1075.79 2255.59,1080.82 2255.56,1091.35L2259.34,1091.4C2259.38,1076.77 2256.01,1069.36 2248.52,1069.15C2240.9,1069.06 2237.36,1076.01 2237.4,1087.6C2237.4,1112.76 2256.11,1103.88 2255.99,1123.5C2255.91,1131.67 2253.72,1136.12 2248.41,1135.93C2243.8,1135.88 2240.61,1131.63 2240.64,1118.99L2236.8,1118.94C2236.76,1135.15 2241.03,1142.31 2248.45,1142.52C2256.71,1142.74 2259.87,1135.4 2259.9,1123.68Z" style="fill:rgb(242,242,242);fill-rule:nonzero;"/>
                </g>
                <g transform="matrix(1,0,0,0.485844,353.114,107.537)">
                    <path d="M1328.13,1056.15L1331.96,1055.67L1329.17,971.949L1344.93,1054.05L1349.02,1053.54L1360.1,968.352L1362.24,1051.89L1366.14,1051.4L1363.48,958.956L1357.35,959.721L1346.71,1044.98L1331.41,962.96L1325.4,963.71L1328.13,1056.15Z" style="fill:rgb(242,242,242);fill-rule:nonzero;"/>
                    <path d="M1401.15,1013.66C1400.75,990.356 1397.95,976.986 1388.23,977.705C1378.57,978.551 1376.25,992.168 1376.65,1015.47C1377.06,1038.9 1379.85,1051.75 1389.51,1051.03C1399.23,1050.31 1401.56,1037.09 1401.15,1013.66ZM1380.68,1015.17C1380.33,994.635 1381.95,985.024 1388.35,984.551C1394.81,984.073 1396.76,993.419 1397.12,1013.96C1397.48,1034.49 1395.85,1043.84 1389.39,1044.32C1383,1044.79 1381.04,1035.71 1380.68,1015.17Z" style="fill:rgb(242,242,242);fill-rule:nonzero;"/>
                    <path d="M1412.69,1048.1L1416.6,1047.95L1416.16,998.036C1417.2,992.728 1419.68,983.808 1424.8,983.619C1429.67,983.438 1431.2,990.364 1431.31,1003.53L1431.7,1047.39L1435.6,1047.25L1435.22,1003.39C1435.04,983.107 1432.16,975.968 1425.95,976.198C1419.81,976.426 1416.88,984.703 1415.7,989.621L1414.96,977.659L1411.57,977.785L1412.24,995.942L1412.69,1048.1Z" style="fill:rgb(242,242,242);fill-rule:nonzero;"/>
                    <path d="M1446.67,1008.35L1458.64,1008.25L1458.63,1001.66L1446.66,1001.76L1446.67,1008.35Z" style="fill:rgb(242,242,242);fill-rule:nonzero;"/>
                    <path d="M1471.03,1046.96L1475.07,1047.03L1475.24,1004.22L1491.5,1004.51L1491.53,997.394L1475.27,997.108L1475.42,961.674L1494.24,962.006L1494.27,954.761L1471.42,954.358L1471.03,1046.96Z" style="fill:rgb(242,242,242);fill-rule:nonzero;"/>
                    <path d="M1501.3,1047.63L1505.21,1047.78L1505.61,1003C1506.31,996.961 1508.67,983.481 1515.32,983.736L1515.39,976.492C1508.99,976.247 1506.35,985.632 1505.34,991.258L1504.82,977.405L1501.43,977.275L1501.76,997.05L1501.3,1047.63Z" style="fill:rgb(242,242,242);fill-rule:nonzero;"/>
                    <path d="M1524.81,965.49L1528.71,965.693L1528.89,951.471L1524.99,951.268L1524.81,965.49ZM1523.79,1048.59L1527.69,1048.79L1528.56,978.467L1524.65,978.264L1523.79,1048.59Z" style="fill:rgb(242,242,242);fill-rule:nonzero;"/>
                    <path d="M1537.04,1061.97L1539.99,1062.15C1539.99,1062.15 1541.47,1056.84 1542.7,1047.56C1543.79,1038.54 1543.8,1033.79 1543.8,1033.79L1540.09,1033.56C1540.09,1033.56 1540.09,1037.65 1539.19,1046.82C1538.28,1055.98 1537.04,1061.97 1537.04,1061.97Z" style="fill:rgb(242,242,242);fill-rule:nonzero;"/>
                    <path d="M1599.52,1008.02C1600.25,973.799 1596.72,959.238 1585.53,958.224C1574.4,957.215 1570.2,971.075 1569.47,1005.29C1568.73,1039.64 1572.34,1053.94 1583.46,1054.95C1594.65,1055.97 1598.78,1042.36 1599.52,1008.02ZM1573.62,1005.67C1574.27,975.399 1577.38,965 1585.37,965.725C1593.36,966.45 1596.08,977.376 1595.43,1007.64C1594.78,1037.91 1591.61,1048.17 1583.62,1047.45C1575.63,1046.72 1572.98,1035.94 1573.62,1005.67Z" style="fill:rgb(242,242,242);fill-rule:nonzero;"/>
                    <path d="M1632.14,1035.33L1628.31,1034.9C1627.95,1046.07 1625.36,1051.72 1620.25,1051.16C1614.05,1050.47 1612.43,1041.32 1612.98,1020.67C1613.51,1000.28 1615.62,990.749 1621.82,991.437C1627.06,992.019 1629.18,998.983 1628.9,1012.01L1632.74,1012.44C1633.04,996.113 1630.49,985.672 1621.99,984.729C1612.53,983.679 1609.56,996.936 1608.95,1020.22C1608.34,1043.5 1610.62,1056.81 1620.08,1057.86C1628.38,1058.79 1631.64,1049.65 1632.14,1035.33Z" style="fill:rgb(242,242,242);fill-rule:nonzero;"/>
                    <path d="M1653.64,1060.67L1653.85,1053.44L1651.74,1053.18C1647.27,1052.62 1646.83,1045.58 1647.21,1032.69L1648.29,995.873L1655.31,996.744L1655.5,990.301L1648.48,989.43L1649.14,966.814L1645.19,968.04L1644.58,988.947L1640.81,988.48L1640.62,994.923L1644.39,995.39L1643.31,1032.47C1642.84,1048.51 1643.16,1059.37 1651.27,1060.38L1653.64,1060.67Z" style="fill:rgb(242,242,242);fill-rule:nonzero;"/>
                    <path d="M1686.27,1029.78C1687.02,1006.52 1684.9,992.633 1675.19,991.317C1665.54,990.141 1662.56,1003.2 1661.81,1026.47C1661.07,1049.87 1663.2,1063.22 1672.85,1064.53C1682.55,1065.85 1685.53,1053.18 1686.27,1029.78ZM1665.84,1027.01C1666.49,1006.51 1668.59,997.287 1674.97,998.152C1681.42,999.027 1682.91,1008.73 1682.25,1029.24C1681.59,1049.74 1679.51,1058.7 1673.06,1057.83C1666.67,1056.96 1665.18,1047.52 1665.84,1027.01Z" style="fill:rgb(242,242,242);fill-rule:nonzero;"/>
                    <path d="M1695.43,1066.21L1698.82,1066.72L1699.75,1056.69C1700.73,1061.59 1703.18,1068.55 1708.92,1069.41C1716.84,1070.58 1720.22,1058.4 1721.03,1035.15C1721.86,1011.5 1719.38,997.923 1711.73,996.786C1706.49,996.009 1703.45,1002.16 1701.95,1006.56L1703.26,969.116L1699.37,968.538L1696.58,1048.03L1695.43,1066.21ZM1710.59,1003.62C1715.76,1004.38 1717.85,1014.21 1717.14,1034.44C1716.43,1054.67 1713.7,1063.12 1708.4,1062.33C1703.68,1061.63 1701.48,1054.83 1700.45,1049.26L1701.65,1015.23C1702.98,1010.28 1705.8,1002.91 1710.59,1003.62Z" style="fill:rgb(242,242,242);fill-rule:nonzero;"/>
                    <path d="M1753.93,1054.19L1750.04,1053.58C1749.76,1059.48 1747.92,1069.1 1741.6,1068.1C1735.35,1067.1 1733.83,1058.01 1734.6,1037.39L1754.64,1040.57C1755.57,1015.74 1753.28,1003.09 1744.09,1001.64C1734.65,1000.14 1731.47,1013.11 1730.59,1036.49C1729.72,1059.87 1731.91,1073.16 1741.36,1074.66C1751.31,1076.24 1753.59,1061.67 1753.93,1054.19ZM1743.86,1007.94C1749.22,1008.79 1751.12,1016.23 1750.85,1033.76L1734.89,1031.23C1735.85,1014.2 1738.17,1007.04 1743.86,1007.94Z" style="fill:rgb(242,242,242);fill-rule:nonzero;"/>
                    <path d="M1763.92,1076.84L1767.81,1077.49L1769.55,1032.84C1770.43,1026.91 1773.19,1013.75 1779.82,1014.85L1780.1,1007.63C1773.72,1006.57 1770.8,1015.61 1769.63,1021.09L1769.53,1007.2L1766.14,1006.64L1765.89,1026.42L1763.92,1076.84Z" style="fill:rgb(242,242,242);fill-rule:nonzero;"/>
                    <path d="M1804.38,1083.64L1808.27,1084.31L1812.01,991.758L1809.39,991.31L1801.05,999.136L1800.73,1007.01L1807.73,1000.54L1804.38,1083.64Z" style="fill:rgb(242,242,242);fill-rule:nonzero;"/>
                    <path d="M1825.41,1087.27L1829.3,1087.95L1833.1,995.406L1830.48,994.953L1822.13,1002.76L1821.81,1010.63L1828.82,1004.18L1825.41,1087.27Z" style="fill:rgb(242,242,242);fill-rule:nonzero;"/>
                    <path d="M1844.52,1051.74L1856.45,1053.83L1856.72,1047.27L1844.79,1045.17L1844.52,1051.74Z" style="fill:rgb(242,242,242);fill-rule:nonzero;"/>
                    <path d="M1870.09,1095.1L1873.98,1095.78L1877.82,1003.25L1875.21,1002.79L1866.86,1010.58L1866.53,1018.45L1873.54,1012.02L1870.09,1095.1Z" style="fill:rgb(242,242,242);fill-rule:nonzero;"/>
                    <path d="M1897.18,1014.85L1913.38,1017.69L1913.67,1010.6L1894.16,1007.18L1889.19,1054.3L1893.01,1055.11C1893.01,1055.11 1895.2,1045.57 1901.64,1046.7C1906.68,1047.58 1909.69,1055.65 1908.99,1072.45C1908.31,1088.85 1905.08,1095.69 1899.34,1094.68C1893.41,1093.65 1890.85,1085.66 1891.29,1075.03L1887.2,1074.32C1886.63,1088.23 1889.68,1100 1899.05,1101.64C1908.17,1103.24 1912.2,1092.71 1913.01,1073.15C1913.82,1053.46 1910.59,1041.66 1902.93,1040.32C1898.02,1039.46 1895.39,1042.57 1894,1045.23L1897.18,1014.85Z" style="fill:rgb(242,242,242);fill-rule:nonzero;"/>
                    <path d="M1935.95,1131.45L1938.95,1131.96L1944.23,1001.21L1941.24,1000.7L1935.95,1131.45Z" style="fill:rgb(242,242,242);fill-rule:nonzero;"/>
                    <path d="M1966.65,1018.91L1976.29,1113.38L1981.2,1114.19L1997.98,1024.03L1993.64,1023.32L1979.1,1105.52L1971.12,1019.64L1966.65,1018.91Z" style="fill:rgb(242,242,242);fill-rule:nonzero;"/>
                    <path d="M2006.27,1034.83L2010.16,1035.44L2010.69,1021.25L2006.8,1020.64L2006.27,1034.83ZM2003.21,1117.71L2007.1,1118.32L2009.69,1048.18L2005.8,1047.57L2003.21,1117.71Z" style="fill:rgb(242,242,242);fill-rule:nonzero;"/>
                    <path d="M2019.25,1120.2L2023.14,1120.79L2024.72,1076.12C2025.57,1070.17 2028.29,1056.97 2034.93,1057.97L2035.18,1050.74C2028.8,1049.78 2025.91,1058.86 2024.75,1064.37L2024.6,1050.47L2021.22,1049.97L2021.03,1069.75L2019.25,1120.2Z" style="fill:rgb(242,242,242);fill-rule:nonzero;"/>
                    <path d="M2053.7,1125.37L2053.95,1118.14L2051.84,1117.84C2047.37,1117.2 2046.97,1110.15 2047.4,1097.27L2048.63,1060.47L2055.66,1061.47L2055.87,1055.03L2048.85,1054.03L2049.61,1031.43L2045.66,1032.58L2044.96,1053.48L2041.19,1052.94L2040.97,1059.38L2044.74,1059.92L2043.49,1096.98C2042.96,1113.01 2043.23,1123.88 2051.34,1125.03L2053.7,1125.37Z" style="fill:rgb(242,242,242);fill-rule:nonzero;"/>
                    <path d="M2081.85,1128.98L2085.24,1129.42L2085.32,1110.03L2086.89,1059.15L2082.99,1058.64L2081.53,1105.97C2080.55,1110.99 2077.7,1122.11 2072.02,1121.36C2067.23,1120.74 2066.04,1113.46 2066.43,1100.7L2067.79,1056.66L2063.96,1056.16L2062.54,1100.2C2061.92,1120.18 2064.38,1127.76 2070.64,1128.58C2077.22,1129.43 2080.47,1119.83 2081.57,1115.35L2081.85,1128.98Z" style="fill:rgb(242,242,242);fill-rule:nonzero;"/>
                    <path d="M2115.38,1132.92L2118.96,1133.32L2118.73,1115.48L2119.26,1095.23C2119.81,1074.71 2120.28,1061.83 2109.16,1060.58C2099.64,1059.51 2097.97,1071.72 2097.71,1081.45L2101.29,1081.86C2101.5,1073.83 2103.05,1066.22 2109.18,1066.91C2115.89,1067.67 2115.89,1075.19 2115.44,1092.03L2115.43,1092.42C2114.03,1091.87 2111.56,1090.93 2108.17,1090.55C2101.14,1089.76 2096.27,1094.62 2095.78,1110.66C2095.35,1124.46 2098.02,1132.41 2104.86,1133.18C2109.84,1133.74 2113.09,1129.62 2115.04,1124.04L2115.38,1132.92ZM2105.86,1126.83C2100.88,1126.27 2099.44,1119.91 2099.75,1110.71C2100.11,1099.8 2103.54,1096.09 2108.91,1096.7C2111.85,1097.03 2114,1097.8 2115.27,1098.34L2114.84,1114.65C2113.82,1121.53 2110.65,1127.37 2105.86,1126.83Z" style="fill:rgb(242,242,242);fill-rule:nonzero;"/>
                    <path d="M2130.45,1134.45L2134.35,1134.83L2136.59,1036.93L2132.69,1036.56L2130.45,1134.45Z" style="fill:rgb(242,242,242);fill-rule:nonzero;"/>
                    <path d="M2144.3,1141.06L2147.88,1141.35L2165.73,1033.66L2162.14,1033.37L2144.3,1141.06Z" style="fill:rgb(242,242,242);fill-rule:nonzero;"/>
                    <path d="M2172.98,1138.47L2184.05,1139.12C2197.74,1139.92 2200.99,1127.33 2201.46,1093.49C2201.92,1059.78 2199.03,1046.56 2185.34,1045.76L2174.27,1045.11L2172.98,1138.47ZM2178.2,1052.72L2185.82,1053.17C2195.03,1053.71 2197.78,1063.23 2197.36,1093.25C2196.95,1123.27 2193.94,1132.45 2184.73,1131.91L2177.11,1131.47L2178.2,1052.72Z" style="fill:rgb(242,242,242);fill-rule:nonzero;"/>
                    <path d="M2212.54,1047.08L2211.88,1140.6L2224.87,1140.98C2236.84,1141.34 2238.89,1132.7 2239.01,1115.58C2239.08,1104.38 2237.35,1095.64 2232.19,1092.06C2236.82,1089.03 2238.29,1081.17 2238.36,1070.64C2238.46,1057.07 2235.77,1047.77 2225.59,1047.46L2212.54,1047.08ZM2216.52,1053.91L2225.61,1054.18C2232.07,1054.38 2234.47,1059.98 2234.39,1071.31C2234.3,1083.56 2232.03,1088.76 2226.07,1088.58L2216.28,1088.16L2216.52,1053.91ZM2216.24,1095.01L2226.03,1095.3C2232.17,1095.48 2235.2,1101.77 2235.11,1114.94C2235,1129.69 2232.86,1134.5 2225.05,1134.27L2215.96,1134L2216.24,1095.01Z" style="fill:rgb(242,242,242);fill-rule:nonzero;"/>
                    <path d="M2249.65,1141.16L2253.68,1141.15L2253.66,1097.16L2272.54,1097.12L2272.56,1141.12L2276.59,1141.12L2276.55,1048.51L2272.52,1048.52L2272.54,1089.62L2253.66,1089.65L2253.64,1048.55L2249.61,1048.56L2249.65,1141.16Z" style="fill:rgb(242,242,242);fill-rule:nonzero;"/>
                    <path d="M2328.81,1109.35C2328.57,1089.2 2325.05,1078.31 2316.6,1078.74C2311.04,1079.02 2308.03,1084.84 2306.43,1090.32C2306.72,1060.66 2309.51,1052.87 2315.14,1052.59C2320.77,1052.3 2322.92,1060.89 2323.03,1070.37L2327.06,1070.17C2326.92,1058.05 2324.01,1045.15 2314.99,1045.61C2305.52,1046.09 2301.96,1059.06 2302.45,1099.62C2302.81,1130.04 2306.54,1141.71 2316.13,1141.22C2325.8,1140.73 2329.05,1129.36 2328.81,1109.35ZM2315.85,1085.36C2321.48,1085.08 2324.44,1092.04 2324.65,1109.42C2324.86,1126.41 2322.13,1134.06 2316.05,1134.37C2310.04,1134.68 2306.93,1126.53 2306.51,1101.65C2307.4,1096.07 2309.96,1085.66 2315.85,1085.36Z" style="fill:rgb(242,242,242);fill-rule:nonzero;"/>
                    <path d="M2364.78,1090.04C2364.06,1055.16 2360.41,1042.69 2350.37,1043.57C2340.33,1044.44 2337.14,1057.51 2337.86,1092.39C2338.58,1127.27 2342.3,1139.6 2352.34,1138.72C2362.38,1137.85 2365.5,1124.91 2364.78,1090.04ZM2341.96,1092.03C2341.32,1061.1 2343.68,1051.54 2350.53,1050.94C2357.3,1050.35 2360.12,1059.46 2360.76,1090.39C2361.39,1121.32 2358.96,1130.76 2352.18,1131.35C2345.34,1131.95 2342.59,1122.96 2341.96,1092.03Z" style="fill:rgb(242,242,242);fill-rule:nonzero;"/>
                    <path d="M2380.2,1134.43L2384.1,1133.98L2381.57,1041.25L2378.95,1041.56L2371.22,1051.68L2371.43,1059.58L2377.93,1051.17L2380.2,1134.43Z" style="fill:rgb(242,242,242);fill-rule:nonzero;"/>
                    <path d="M2401.28,1131.71L2405.17,1131.17L2402.14,1038.52L2399.52,1038.88L2391.84,1049.19L2392.1,1057.07L2398.55,1048.52L2401.28,1131.71Z" style="fill:rgb(242,242,242);fill-rule:nonzero;"/>
                </g>
            </g>
        </g>
        <g>
            <g transform="matrix(0.533227,0,-0.747031,0.361678,2918.51,1132.65)">
                <g id="Anteater1" transform="matrix(-3.46625,-0.736774,-0.736774,3.46625,3498.67,1459.5)">
                    <g id="AE1">
                        <g id="aebody1">
                            <path d="M83.308,32.059C83.056,32.69 82.619,33.231 82.055,33.61C81.473,33.927 80.849,34.162 80.202,34.308L78.944,33.994C77.442,33.602 75.91,33.34 74.364,33.209C72.836,32.911 71.267,32.88 69.729,33.118C68.992,33.175 67.872,33.337 66.748,33.553C65.625,33.769 64.528,33.976 63.851,34.162L59.881,34.766C52.881,36.604 59.25,24.04 58.23,31.34C57.23,38.4 59.49,51.73 59.65,52.65C65.001,64.336 62.066,78.242 52.45,86.77C42.834,95.298 52.96,93.24 52.45,96.13C51.94,99.02 48.36,100.13 48.36,100.13C45.478,100.65 42.506,99.922 40.19,98.13C38.649,97.034 37.355,95.627 36.39,94C35.004,94.171 33.606,94.231 32.21,94.18C31.225,95.743 29.949,97.101 28.45,98.18C25.51,100.1 24.36,99.72 22.19,100.39C20.02,101.06 18.36,100.48 16.45,98.44C14.54,96.4 14.66,94.74 14.27,91.44C14.131,90.14 14.205,88.826 14.49,87.55C4.668,79.546 1.124,66.022 5.76,54.23L5.76,54.11C6,53.76 6.5,52.62 7.26,51C10,45 15.79,32.59 18.06,27.77C19.26,25.22 20.501,16.098 22.284,14.435C24.851,12.039 25.049,11.857 25.229,11.666C26.048,10.774 26.999,10.014 28.049,9.412C28.99,8.963 29.977,8.618 30.992,8.383L32.311,7.806C31.673,6.198 31.858,4.377 32.805,2.931C34.073,1.598 35.646,0.593 37.389,0.003C38.519,-0.043 40.714,0.398 41.495,1.338C42.56,2.807 43.302,4.485 43.672,6.261C44.622,6.283 45.565,6.433 46.475,6.705C48.687,7.365 52.47,8.589 57.296,10.412C59.448,11.243 61.412,11.795 63.078,12.46C70.603,15.453 73.043,17.952 73.043,17.952L80.478,24.051C80.481,24.053 80.484,24.054 80.487,24.056C83.456,25.477 84.729,29.09 83.308,32.059C83.308,32.059 83.308,32.059 83.308,32.059Z" style="fill:rgb(0,130,30);fill-rule:nonzero;"/>
                        </g>
                        <g id="stripes">
                            <path d="M17.51,28.8C17.51,28.8 31.51,41.07 37.17,43.8C42.83,46.53 48.17,48.47 51.98,48.62C54.456,48.697 56.934,48.573 59.39,48.25C59.394,49.482 59.6,50.705 60,51.87C60.825,54.022 61.53,56.219 62.11,58.45C62.28,59.37 62.58,61.99 62.58,61.99C62.58,61.99 42.74,58.45 38.44,56.31C34.62,54.43 23.76,42.73 22,40C20.24,37.27 16.33,31.34 16.33,31.34L17.51,28.8Z" style="fill:rgb(0,130,30);fill-rule:nonzero;"/>
                            <path d="M18.29,27C18.29,27 30.52,36.72 36,39.54C41.23,42.22 44.68,43.82 48.68,44.22C52.68,44.62 59,45.39 59,45.39L59.29,47.64C59.29,47.64 50.13,47.25 45.4,46C40.67,44.75 25,34.23 22.17,32C20.683,30.816 19.109,29.746 17.46,28.8L18.29,27Z" style="fill:rgb(0,130,30);fill-rule:nonzero;"/>
                            <path d="M15.88,32.29C17.939,36.42 20.517,40.272 23.55,43.75C28.83,49.91 34.79,55.57 36.66,56.31C38.53,57.05 42.28,59.31 46.53,60.37C49.503,61.15 52.532,61.695 55.59,62C58.83,62.35 60.21,62.67 61.47,62.67L62.61,62.67L62.53,66.26C62.53,66.26 47.53,65.12 42.79,62.67C38.05,60.22 30.36,55.36 28.06,52.67C25.76,49.98 22.61,46.05 21,43.75C19.39,41.45 16.59,35.75 15.88,34.75C15.17,33.75 15.31,33.46 15.31,33.46L15.88,32.29Z" style="fill:rgb(0,130,30);fill-rule:nonzero;"/>
                        </g>
                        <g transform="matrix(0.898871,-0.438214,0.438214,0.898871,-19.49,9.04)">
                            <g id="aehand1">
                                <ellipse cx="9.84" cy="46.74" rx="10.3" ry="7.55" style="fill:rgb(0,130,30);"/>
                            </g>
                        </g>
                    </g>
                    <g id="ae1_2_buttshadow">
                        <path d="M3.77,65.33C3.77,65.33 3.69,70.82 5.29,74.33C6.397,76.843 7.666,79.282 9.09,81.63C10.36,83.27 11.722,84.836 13.17,86.32C13.843,86.972 14.554,87.583 15.3,88.15C17.091,89.607 19.064,90.824 21.17,91.77C23.084,92.382 25.03,92.886 27,93.28C28.97,93.674 31.51,94.28 31.77,94.18C32.03,94.08 36.18,94.12 36.43,93.95C36.68,93.78 44.26,88.43 44.26,88.43L35.89,89.58L31.89,89.58C30.223,89.402 28.583,89.033 27,88.48C24.58,87.65 19.66,85.74 17.46,83.96C15.11,82.06 10.86,78.16 9.84,76.48C7.33,72.37 3.77,65.33 3.77,65.33Z" style="fill:rgb(0,130,30);fill-rule:nonzero;"/>
                    </g>
                    <g id="aeLegShadow">
                        <path d="M14.49,87.46C14.49,87.46 13.8,87.57 14.27,91.35C14.48,92.435 14.607,93.535 14.65,94.64C14.847,95.661 15.222,96.64 15.76,97.53C16.533,98.472 17.431,99.303 18.43,100C18.985,100.23 19.557,100.417 20.14,100.56C20.829,100.536 21.514,100.455 22.19,100.32C22.83,100.15 22.19,100.43 21.51,99.45C21.014,98.907 20.618,98.281 20.34,97.6C19.682,96.433 19.149,95.199 18.75,93.92C18.83,92.767 19.007,91.623 19.28,90.5L14.49,87.46Z" style="fill:rgb(0,130,30);fill-rule:nonzero;"/>
                    </g>
                    <g id="aeEye" transform="matrix(1,0,0,1,-2.64329,6.26263)">
                        <circle cx="42.39" cy="11.48" r="2.2" style="fill:rgb(0,130,30);"/>
                    </g>
                </g>
                <g transform="matrix(0.993623,-0.048072,0.0262725,0.994677,-30.4648,224.293)">
                    <g transform="matrix(0.611153,0,0.0054966,0.0397324,1402.3,1561.43)">
                        <rect x="3016.36" y="1407.03" width="242.779" height="182.528" style="fill:rgb(0,130,30);"/>
                    </g>
                    <g transform="matrix(1.03081,0,0.131936,0.953703,-305.504,108.62)">
                        <rect x="3016.36" y="1407.03" width="242.779" height="182.528" style="fill:rgb(0,130,30);"/>
                    </g>
                </g>
            </g>
            <g>
                <g id="Anteater11" serif:id="Anteater1" transform="matrix(-3.46625,-0.736774,-0.736774,3.46625,3498.67,1459.5)">
                    <g id="AE11" serif:id="AE1">
                        <g id="aebody11" serif:id="aebody1">
                            <path d="M83.308,32.059C83.056,32.69 82.619,33.231 82.055,33.61C81.473,33.927 80.849,34.162 80.202,34.308L78.944,33.994C77.442,33.602 75.91,33.34 74.364,33.209C72.836,32.911 71.267,32.88 69.729,33.118C68.992,33.175 67.872,33.337 66.748,33.553C65.625,33.769 64.528,33.976 63.851,34.162L59.881,34.766C52.881,36.604 59.25,24.04 58.23,31.34C57.23,38.4 59.49,51.73 59.65,52.65C65.001,64.336 62.066,78.242 52.45,86.77C42.834,95.298 52.96,93.24 52.45,96.13C51.94,99.02 48.36,100.13 48.36,100.13C45.478,100.65 42.506,99.922 40.19,98.13C38.649,97.034 37.355,95.627 36.39,94C35.004,94.171 33.606,94.231 32.21,94.18C31.225,95.743 29.949,97.101 28.45,98.18C25.51,100.1 24.36,99.72 22.19,100.39C20.02,101.06 18.36,100.48 16.45,98.44C14.54,96.4 14.66,94.74 14.27,91.44C14.131,90.14 14.205,88.826 14.49,87.55C4.668,79.546 1.124,66.022 5.76,54.23L5.76,54.11C6,53.76 6.5,52.62 7.26,51C10,45 15.79,32.59 18.06,27.77C19.26,25.22 20.501,16.098 22.284,14.435C24.851,12.039 25.049,11.857 25.229,11.666C26.048,10.774 26.999,10.014 28.049,9.412C28.99,8.963 29.977,8.618 30.992,8.383L32.311,7.806C31.673,6.198 31.858,4.377 32.805,2.931C34.073,1.598 35.646,0.593 37.389,0.003C38.519,-0.043 40.714,0.398 41.495,1.338C42.56,2.807 43.302,4.485 43.672,6.261C44.622,6.283 45.565,6.433 46.475,6.705C48.687,7.365 52.47,8.589 57.296,10.412C59.448,11.243 61.412,11.795 63.078,12.46C70.603,15.453 73.043,17.952 73.043,17.952L80.478,24.051C80.481,24.053 80.484,24.054 80.487,24.056C83.456,25.477 84.729,29.09 83.308,32.059C83.308,32.059 83.308,32.059 83.308,32.059Z" style="fill:rgb(167,169,172);fill-rule:nonzero;"/>
                        </g>
                        <g id="stripes1" serif:id="stripes">
                            <path d="M17.51,28.8C17.51,28.8 31.51,41.07 37.17,43.8C42.83,46.53 48.17,48.47 51.98,48.62C54.456,48.697 56.934,48.573 59.39,48.25C59.394,49.482 59.6,50.705 60,51.87C60.825,54.022 61.53,56.219 62.11,58.45C62.28,59.37 62.58,61.99 62.58,61.99C62.58,61.99 42.74,58.45 38.44,56.31C34.62,54.43 23.76,42.73 22,40C20.24,37.27 16.33,31.34 16.33,31.34L17.51,28.8Z" style="fill:rgb(35,31,32);fill-rule:nonzero;"/>
                            <path d="M18.29,27C18.29,27 30.52,36.72 36,39.54C41.23,42.22 44.68,43.82 48.68,44.22C52.68,44.62 59,45.39 59,45.39L59.29,47.64C59.29,47.64 50.13,47.25 45.4,46C40.67,44.75 25,34.23 22.17,32C20.683,30.816 19.109,29.746 17.46,28.8L18.29,27Z" style="fill:white;fill-rule:nonzero;"/>
                            <path d="M15.88,32.29C17.939,36.42 20.517,40.272 23.55,43.75C28.83,49.91 34.79,55.57 36.66,56.31C38.53,57.05 42.28,59.31 46.53,60.37C49.503,61.15 52.532,61.695 55.59,62C58.83,62.35 60.21,62.67 61.47,62.67L62.61,62.67L62.53,66.26C62.53,66.26 47.53,65.12 42.79,62.67C38.05,60.22 30.36,55.36 28.06,52.67C25.76,49.98 22.61,46.05 21,43.75C19.39,41.45 16.59,35.75 15.88,34.75C15.17,33.75 15.31,33.46 15.31,33.46L15.88,32.29Z" style="fill:white;fill-rule:nonzero;"/>
                        </g>
                        <g transform="matrix(0.898871,-0.438214,0.438214,0.898871,-19.49,9.04)">
                            <g id="aehand11" serif:id="aehand1">
                                <ellipse cx="9.84" cy="46.74" rx="10.3" ry="7.55" style="fill:rgb(188,190,192);"/>
                            </g>
                        </g>
                    </g>
                    <g id="ae1_2_buttshadow1" serif:id="ae1_2_buttshadow">
                        <path d="M3.77,65.33C3.77,65.33 3.69,70.82 5.29,74.33C6.397,76.843 7.666,79.282 9.09,81.63C10.36,83.27 11.722,84.836 13.17,86.32C13.843,86.972 14.554,87.583 15.3,88.15C17.091,89.607 19.064,90.824 21.17,91.77C23.084,92.382 25.03,92.886 27,93.28C28.97,93.674 31.51,94.28 31.77,94.18C32.03,94.08 36.18,94.12 36.43,93.95C36.68,93.78 44.26,88.43 44.26,88.43L35.89,89.58L31.89,89.58C30.223,89.402 28.583,89.033 27,88.48C24.58,87.65 19.66,85.74 17.46,83.96C15.11,82.06 10.86,78.16 9.84,76.48C7.33,72.37 3.77,65.33 3.77,65.33Z" style="fill:rgb(147,149,152);fill-rule:nonzero;"/>
                    </g>
                    <g id="aeLegShadow1" serif:id="aeLegShadow">
                        <path d="M14.49,87.46C14.49,87.46 13.8,87.57 14.27,91.35C14.48,92.435 14.607,93.535 14.65,94.64C14.847,95.661 15.222,96.64 15.76,97.53C16.533,98.472 17.431,99.303 18.43,100C18.985,100.23 19.557,100.417 20.14,100.56C20.829,100.536 21.514,100.455 22.19,100.32C22.83,100.15 22.19,100.43 21.51,99.45C21.014,98.907 20.618,98.281 20.34,97.6C19.682,96.433 19.149,95.199 18.75,93.92C18.83,92.767 19.007,91.623 19.28,90.5L14.49,87.46Z" style="fill:rgb(147,149,152);fill-rule:nonzero;"/>
                    </g>
                    <g id="aeEye1" serif:id="aeEye" transform="matrix(1,0,0,1,-2.64329,6.26263)">
                        <circle cx="42.39" cy="11.48" r="2.2" style="fill:rgb(35,31,32);"/>
                    </g>
                </g>
                <g transform="matrix(0.993623,-0.048072,0.0262725,0.994677,-30.4648,224.293)">
                    <g transform="matrix(0.597423,-0.11635,0.012941,0.0381253,1441.16,1914.94)">
                        <rect x="3016.36" y="1407.03" width="242.779" height="182.528" style="fill:rgb(94,83,65);"/>
                    </g>
                    <g transform="matrix(1.03081,0,0.131936,0.953703,-305.504,108.62)">
                        <rect x="3016.36" y="1407.03" width="242.779" height="182.528" style="fill:rgb(94,83,65);"/>
                    </g>
                    <g transform="matrix(0.274218,-0.000144332,0.0378887,0.274205,3034.73,1493.43)">
                        <path id="px4Vka39o" d="M26,245.6C26,245.4 38.5,213.8 53.9,175.3C69.2,136.9 84.5,98.4 87.9,89.8L94.2,74L105.7,74C116.2,74 117.2,74.1 116.6,75.8C116.2,76.7 100.8,115.4 82.3,161.8L48.8,246L37.4,246C31.1,246 26,245.8 26,245.6Z" style="fill:rgb(62,54,43);fill-rule:nonzero;"/>
                        <path id="pM4x3K3QA" d="M82,245.3C82,244.8 97.3,206.3 115.9,159.5L149.8,74.5L161.4,74.2L173.1,73.9L171.7,77.2C171,79 155.6,117.7 137.5,163.2L104.5,246L93.3,246C87.1,246 82,245.7 82,245.3Z" style="fill:rgb(62,54,43);fill-rule:nonzero;"/>
                        <path id="peEpkmn69" d="M189,246L189,74L214,74L214,246L189,246Z" style="fill:rgb(62,54,43);fill-rule:nonzero;"/>
                        <path id="pFNWP5AwA" d="M230.3,245.3C227,244.7 222.4,239.6 221.6,235.9C221.3,234.2 221,199.6 221.1,159.1C221.1,104.8 221.4,84.6 222.3,82.1C223,80.2 224.8,77.7 226.3,76.6C229,74.6 230.4,74.5 261.8,74.2C307.4,73.9 305,72 305,106.8L305,129L280,129L280,95L246,95L246,225L291.8,225L297.9,234.9C301.3,240.3 304,245 304,245.4C304,246.1 233.9,246 230.3,245.3Z" style="fill:rgb(62,54,43);fill-rule:nonzero;"/>
                        <path id="p10O7zfcod" d="M306.7,235.5L300.1,225L369,225L369,190.5L341.8,165C322.9,147.2 314.2,138.3 312.9,135.5C311.3,132 311,128.7 311,108.5C311,87.8 311.2,85.1 313,81.2C316.2,74.2 317.2,74 352.6,74C386.5,74 387.9,74.2 391.5,80.3C393.3,83.2 393.5,85.8 393.8,105.3L394.2,127L369,127L369,95L336,95L336,126.7L363,152.1C378.3,166.5 390.8,179 391.8,181C393.3,184.1 393.5,187.7 393.5,210C393.5,237.8 393.2,239.3 387.7,243.4C385,245.4 383.6,245.5 349.1,245.8L313.3,246.1L306.7,235.5Z" style="fill:rgb(62,54,43);fill-rule:nonzero;"/>
                        <path id="pDeo5WbVH" d="M413.5,246L400.1,225L457,225L457,190.2L429.9,164.4C413.1,148.5 402.2,137.4 401.4,135.3C400.3,132.9 400,126.1 400,107.8C400,85.5 400.2,83.2 402,80.3C405.8,73.9 405.2,74 455.2,74L500.5,74.1L507.3,85.1L514,96L514,225L559.5,225L565.5,234.7C568.8,240 571.7,244.8 571.8,245.2C572,245.6 555.9,246 536.1,246C496,246 494.7,245.8 491,239.8C489.1,236.6 489,234.9 489,165.8L489,95L425,95L425.1,111.3L425.2,127.5L452.2,152.9C469.2,168.9 479.8,179.6 480.6,181.7C481.7,184.1 482,191 482,210C482,237.4 481.6,240 476.4,243.5C473.7,245.4 471.4,245.5 443.5,245.8L413.5,246Z" style="fill:rgb(62,54,43);fill-rule:nonzero;"/>
                        <path id="pJ6tjuRD9" d="M548,129L548,95L522.5,95L509.1,74L535.6,74C566.3,74 567.9,74.3 571,81.2C572.7,85 573,87.9 573,107.3L573,129L548,129Z" style="fill:rgb(62,54,43);fill-rule:nonzero;"/>
                    </g>
                </g>
            </g>
        </g>
    </g>
    <defs>
        <linearGradient id="_Linear1" x1="0" y1="0" x2="1" y2="0" gradientUnits="userSpaceOnUse" gradientTransform="matrix(1.32262e-13,2160,-2160,1.32262e-13,1942.15,0)"><stop offset="0" style="stop-color:rgb(148,230,255);stop-opacity:1"/><stop offset="1" style="stop-color:rgb(174,236,255);stop-opacity:1"/></linearGradient>
    </defs>
</svg>
